<svg width="1440" height="801" viewBox="0 0 1440 801" fill="none" xmlns="http://www.w3.org/2000/svg">
<rect y="0.5" width="1440" height="800" fill="#FFE6BC"/>
<path d="M1055.5 800.5L663.5 567.5L0 584V800.5H1055.5Z" fill="#F6D7A3"/>
<path d="M645 280V98.5L704 0.5H973L645 280Z" fill="#FFB844"/>
<path d="M1186 800.5V0.5H1440V800.5H1186Z" fill="#FFB844"/>
<path d="M688 276L669 291.5L668 556.5L686.5 567.5L688 276Z" fill="#FFF4CB" stroke="#EFAF33"/>
<path d="M826 176.5L778 211.5L778.5 619L829 644.5L826 176.5Z" fill="#FFF4CB" stroke="#EFAF33"/>
<path d="M986.5 63L892.5 130L897.5 680L995 732L986.5 63Z" fill="#FFF4CB" stroke="#EFAF33"/>
<path d="M892 129.5L826 176.5L829.5 644.5L897 680L892 129.5Z" fill="#FFF4CB" stroke="#EFAF33"/>
<path d="M778 211.315L741 238L739 598.5L778 618.72V211.315Z" fill="#FFF4CB" stroke="#EFAF33"/>
<path d="M741 238.5L712.5 259L709 582L738.5 598.2L741 238.5Z" fill="#FFF4CB" stroke="#EFAF33"/>
<path d="M712 259L688 276L687 568L709 581.5L712 259Z" fill="#FFF4CB" stroke="#EFAF33"/>
<path d="M1074.5 0.5L987 61.5L995.5 733L1119 799.5H1155.5L1142 0.5H1074.5Z" fill="#FFF4CB"/>
<path d="M1151 534.5L992.5 512.5L995.5 733L1119 799.5H1155.5L1151 534.5Z" fill="#F6AE2D" stroke="#785705"/>
<path d="M992 507.5L896 497.5L897.5 681L995 732L992 507.5Z" fill="#F6AE2D" stroke="#785705"/>
<path d="M895.5 488.5L828 478.5L829.5 645L897 680.5L895.5 488.5Z" fill="#F6AE2D" stroke="#785705"/>
<path d="M826.5 479.5L778 475L779 619L828.5 644.5L826.5 479.5Z" fill="#EAAA08"/>
<path d="M827.5 478.5L778 475L779 619L829 644.5L827.5 478.5Z" fill="#F6AE2D" stroke="#785705"/>
<path d="M777 477.5L740 472.5L739 598.5L778 618.5L777 477.5Z" fill="#EAAA08"/>
<path d="M777.5 477.5L740 472.5L739 598.5L778 618.5L777.5 477.5Z" fill="#F6AE2D" stroke="#785705"/>
<path d="M739.5 471.5L710 468.5L709 581.5L738.5 598.5L739.5 471.5Z" fill="#F6AE2D" stroke="#785705"/>
<path d="M709.5 467.5L687 466.5L686.5 568L708.5 581L709.5 467.5Z" fill="#F6AE2D" stroke="#785705"/>
<path d="M686.5 465.5L667.5 462.5L668 557L686 567.5L686.5 465.5Z" fill="#F6AE2D" stroke="#785705"/>
<path d="M1075 1L987 62.5V183.5L1144 111.5V1H1075Z" fill="#F6AE2D" stroke="#785705"/>
<path d="M987 62.5L892 128.5L893 228.5L987.5 183.5L987 62.5Z" fill="#F6AE2D" stroke="#785705"/>
<path d="M892 128.5L826 176.5L826.5 261.5L893 228.5L892 128.5Z" fill="#F6AE2D" stroke="#785705"/>
<path d="M826.5 176.5L778 211V284L826.5 261.645V176.5Z" fill="#F6AE2D" stroke="#785705"/>
<path d="M778 211L741 238V300.5L778 282.5V211Z" fill="#F6AE2D" stroke="#785705"/>
<path d="M741 238L711.5 259.5V313.5L741 300.5V238Z" fill="#F6AE2D" stroke="#785705"/>
<path d="M711.5 259.5L688 276V324.5L711.5 313.5V259.5Z" fill="#F6AE2D" stroke="#785705"/>
<path d="M688 276L669 291V333.5L688 324V276Z" fill="#F6AE2D" stroke="#785705"/>
<path d="M663.5 467V461.5L682 466V471.5L663.5 467Z" fill="#274255"/>
<path d="M671 461.5H663.5L682 466L686 464.5L671 461.5Z" fill="#32566F"/>
<path d="M686 464.5L682 466V471.5L686 470.5V464.5Z" fill="#1C2F3D"/>
<ellipse cx="1060.5" cy="332.5" rx="57.5" ry="137" fill="#274255"/>
<ellipse cx="938.5" cy="351" rx="41.5" ry="113.5" fill="#274255"/>
<ellipse cx="856.5" cy="367" rx="29.5" ry="92.5" fill="#274255"/>
<ellipse cx="801.5" cy="377.5" rx="20.5" ry="81" fill="#274255"/>
<ellipse cx="758" cy="382.5" rx="17" ry="71" fill="#274255"/>
<ellipse cx="725" cy="390" rx="14" ry="63.5" fill="#274255"/>
<ellipse cx="698.5" cy="394.5" rx="9.5" ry="57" fill="#274255"/>
<ellipse cx="678.5" cy="395" rx="7.5" ry="48.5" fill="#274255"/>
<ellipse cx="1070" cy="327.5" rx="47" ry="126" fill="#E6FAFF"/>
<ellipse cx="1070" cy="327.5" rx="47" ry="126" fill="#E6FAFF"/>
<path d="M1070 453.5C1095.96 453.5 1109 403.5 1112 383.5L1029 389.5C1036 417.5 1046.5 453.5 1070 453.5Z" fill="url(#paint0_linear_628_6128)"/>
<ellipse cx="681" cy="395" rx="4" ry="44.5" fill="#274255"/>
<ellipse cx="943.5" cy="353.5" rx="34.5" ry="100" fill="#E6FAFF"/>
<ellipse cx="943.5" cy="353.5" rx="34.5" ry="100" fill="#CEF4FF"/>
<ellipse cx="861" cy="371" rx="23" ry="79.5" fill="#E6FAFF"/>
<ellipse cx="861" cy="371" rx="23" ry="79.5" fill="#C0EFFC"/>
<ellipse cx="806.5" cy="382" rx="11.5" ry="67.5" fill="#E6FAFF"/>
<ellipse cx="806.5" cy="382" rx="11.5" ry="67.5" fill="#B1EEFF"/>
<ellipse cx="763.5" cy="387.5" rx="11.5" ry="57" fill="#E6FAFF"/>
<ellipse cx="763.5" cy="387.5" rx="11.5" ry="57" fill="#B1EEFF"/>
<ellipse cx="730" cy="387" rx="6" ry="44.5" fill="#E6FAFF"/>
<ellipse cx="730" cy="387" rx="6" ry="44.5" fill="#78BCCF"/>
<ellipse cx="704" cy="394" rx="3" ry="35.5" fill="#E6FAFF"/>
<ellipse cx="704" cy="394" rx="3" ry="35.5" fill="#36889F"/>
<ellipse cx="683.5" cy="396" rx="2.5" ry="26.5" fill="#E6FAFF"/>
<ellipse cx="683.5" cy="396" rx="2.5" ry="26.5" fill="#36889F"/>
<path d="M779 276.5H777V281.5L778 284.5L779 276.5Z" fill="#274255"/>
<path d="M741 296.5H740V301L741 302.5V296.5Z" fill="#274255"/>
<path d="M712.5 311.5H710.5V314.5L712.5 316V311.5Z" fill="#274255"/>
<path d="M688.5 323.5H687V326.5L688.5 327.5V323.5Z" fill="#274255"/>
<path d="M824 253.5L778 276V281.5L824 260.5V253.5Z" fill="#535D6B"/>
<path d="M829 261L827 259L890 227L892.5 228.5L829 261Z" fill="#464E59"/>
<path d="M780 283.5L778 281.5L824 260.5L826 262.5L780 283.5Z" fill="#464E59"/>
<path d="M742 302L741 300.5L777 281.5L778 284.5L742 302Z" fill="#464E59"/>
<path d="M713 316.5L712 315.5L740 301L741 302.5L713 316.5Z" fill="#464E59"/>
<path d="M689 327L687.5 326L710.5 314.5L712 315.5L689 327Z" fill="#464E59"/>
<path d="M670.5 337L669 336L687 326.5L688.5 327.5L670.5 337Z" fill="#464E59"/>
<path d="M892.5 218.5H890V227L892.5 228.5V218.5Z" fill="#274255"/>
<path d="M826 253.5H824V260.5L826 262.5V253.5Z" fill="#274255"/>
<path d="M890 218.5L827 251.5V259L890 227.5V218.5Z" fill="#535D6B"/>
<path d="M418 575.5V1.5H108.5V583.5L418 575.5Z" fill="#FFE0AD"/>
<path d="M645.5 247.5L507 244.5V569.5H645.5V247.5Z" fill="#B2740E"/>
<path d="M416.701 0.5L417 90.5L645 98.5L704.5 0.5H416.701Z" fill="#FFF4CB"/>
<path d="M114.5 297L58 264L341.5 18L354.5 84L114.5 297Z" fill="#F9DBAA"/>
<path d="M495.5 25L341.5 18L355 88.5L482 93.5L495.5 25Z" fill="#F9DBAA"/>
<path d="M58 263.5V0.5H496.5V25L341 18L58 263.5Z" fill="#FFF4CB"/>
<path d="M1328 800.5V0H1440V800.5H1328Z" fill="#F6AE2D"/>
<path d="M514.5 570V252L637.5 254.5V570H514.5Z" fill="#F6FFE3"/>
<path d="M0 777.5L46 774V799.5H0V777.5Z" fill="#C0EFFC"/>
<path d="M496 392.5L40 402H0V798H109L161.5 744.5L496.5 722.5L496 392.5Z" fill="#FFE0AD"/>
<path d="M45.5 585.5V401.873L0 402V605.5L45.5 585.5Z" fill="#FFE6BC"/>
<path d="M153 580.5C116.667 582.167 44.3001 585.5 45.5001 585.5L0.5 606V646L41 643L153 580.5Z" fill="#FFE0AD"/>
<path d="M44 774L41 643L155 579.5V672.5L44 774Z" fill="#F9DBAA"/>
<path d="M42 643L1 646V800H46.5L42 643Z" fill="#FFE6BC"/>
<path d="M155 672.5L46 772V800.5H107L155 751.118V672.5Z" fill="#F2CA89"/>
<path d="M496.5 643.5L155 669V751L496.5 722.5V643.5Z" fill="#F2CA89"/>
<path d="M1239 299.5L1235 1H1440V288.5L1330 284.5L1239 299.5Z" fill="#FFF4CB"/>
<path d="M1330 0.5H1235L1239 299.5L1330 284.5V0.5Z" fill="#FAECB6"/>
<path d="M989 181V170.5L1139 99.5V111.5L989 181Z" fill="#535D6B"/>
<path d="M1144 100.5L1139 99.5V111.5L1144 112.5V100.5Z" fill="#274255"/>
<path d="M681 281H656.5L1002 0.5H1074.5L681 281Z" fill="#FFF4CB"/>
<path d="M973 0.5L645.5 279.5L656.5 281L1002 0.5H973Z" fill="#B2740E"/>
<path d="M1168.5 0.5H1142L1155 800.5H1175.5L1168.5 0.5Z" fill="#FAECB6"/>
<path d="M1155.5 0.5H1142L1155 800.5H1168.5L1155.5 0.5Z" fill="#C09653"/>
<path d="M894 225.5V217.5L983.5 173.5V182L894 225.5Z" fill="#535D6B"/>
<path d="M989 180.5L1139 111.5L1144 112.5L991.5 183L989 180.5Z" fill="#464E59"/>
<path d="M896 227.5L894 225.5L984 181.5L987.5 183.5L896 227.5Z" fill="#464E59"/>
<path d="M684 472V464.5L708.5 467V475.5L684 472Z" fill="#274255"/>
<path d="M706.5 475.5V467.5L738.5 469.5V478L706.5 475.5Z" fill="#274255"/>
<path d="M777.5 473.5L736.5 468.5V477.5L777.5 484.5V473.5Z" fill="#274255"/>
<path d="M987.5 173.5H983.5V182.2L987.5 183.5V173.5Z" fill="#274255"/>
<path d="M774.5 485V473L827 478.5V492L774.5 485Z" fill="#32546C"/>
<path d="M886.5 484L822 477.5V491L886.5 500.5V484Z" fill="#3C6480"/>
<path d="M893 483.5L886.5 484V500.5L893 500V483.5Z" fill="#274255"/>
<path d="M889.5 500V483.5L980 491.5V509.5L889.5 500Z" fill="#3C6480"/>
<path d="M991.5 492L980 491.5V510L991.5 510.5V492Z" fill="#274255"/>
<path d="M777 276.5L741 294.5V300.5L777 281.5V276.5Z" fill="#535D6B"/>
<path d="M740 296.5L712 310.5V315.5L740 301V296.5Z" fill="#535D6B"/>
<path d="M710.5 311.5L687.5 323.5V326L710.5 314.5V311.5Z" fill="#535D6B"/>
<path d="M687 323.5L669 333V336L687 326.5V323.5Z" fill="#535D6B"/>
<path d="M981 511V491L1137 509.5V534.5L981 511Z" fill="#3C6480"/>
<path d="M1137 534.5V509.5H1150V534.5H1137Z" fill="#274255"/>
<ellipse cx="628" cy="394" rx="53" ry="55.5" fill="#274255"/>
<ellipse cx="629" cy="393.5" rx="44" ry="45" fill="#36889F"/>
<path d="M1124 269.5H1110L1113 364H1127L1124 269.5Z" fill="#3C6480"/>
<path d="M1111 379V363.5H1121.5V379H1111Z" fill="#FE8A4C"/>
<path d="M1124 269.5H1114.5L1117 363.5H1127L1124 269.5Z" fill="#274255"/>
<path d="M1130 363.5H1121.5V379H1130V363.5Z" fill="#F26419"/>
<path d="M1117 254.5L1108.5 255.5V270L1117 269.5V254.5Z" fill="#FE8A4C"/>
<path d="M1126.5 254.5H1117V269.5H1126.5V254.5Z" fill="#F26419"/>
<path d="M943.651 453.5C960 453.5 973 417.5 974.5 397L915 409.614C919.892 428.814 927.301 453.5 943.651 453.5Z" fill="url(#paint1_linear_628_6128)"/>
<path d="M860.5 451C866 451 875 442.5 880.5 416L843.5 423C848.392 442.2 855 451 860.5 451Z" fill="url(#paint2_linear_628_6128)"/>
<path d="M980.5 382L979.5 308H969.5L971 382H980.5Z" fill="#3C6480"/>
<path d="M980.5 382L979.5 308H973L974 382H980.5Z" fill="#274255"/>
<path d="M970 393.5V381H976.5V393.5H970Z" fill="#FE8A4C"/>
<path d="M983 381H976.5V393.5H983V381Z" fill="#F26419"/>
<path d="M973.5 297H968.5V309H973.5V297Z" fill="#FE8A4C"/>
<path d="M981.5 297H973.5V309H981.5V297Z" fill="#F26419"/>
<path d="M891.01 391.407L890.176 329.676H881.834L883.085 391.407H891.01Z" fill="#3C6480"/>
<path d="M891.01 391.407L890.176 329.676H884.754L885.588 391.407H891.01Z" fill="#274255"/>
<path d="M882.251 401V390.573H887.674V401H882.251Z" fill="#FE8A4C"/>
<path d="M893.096 390.573H887.674V401H893.096V390.573Z" fill="#F26419"/>
<path d="M885.171 320.5H881V330.51H885.171V320.5Z" fill="#FE8A4C"/>
<path d="M891.845 320.5H885.171V330.51H891.845V320.5Z" fill="#F26419"/>
<path d="M825.448 399.259L824.828 353.328H818.621L819.552 399.259H825.448Z" fill="#3C6480"/>
<path d="M825.448 399.259L824.828 353.328H820.793L821.414 399.259H825.448Z" fill="#274255"/>
<path d="M818.931 406.397V398.638H822.966V406.397H818.931Z" fill="#FE8A4C"/>
<path d="M827 398.638H822.966V406.397H827V398.638Z" fill="#F26419"/>
<path d="M821.103 346.5H818V353.948H821.103V346.5Z" fill="#FE8A4C"/>
<path d="M826.069 346.5H821.103V353.948H826.069V346.5Z" fill="#F26419"/>
<path d="M778.342 405.422L777.814 366.313H772.529L773.321 405.422H778.342Z" fill="#3C6480"/>
<path d="M778.342 405.422L777.813 366.313H774.378L774.907 405.422H778.342Z" fill="#274255"/>
<path d="M772.793 411.5V404.894H776.228V411.5H772.793Z" fill="#FE8A4C"/>
<path d="M779.663 404.894H776.228V411.5H779.663V404.894Z" fill="#F26419"/>
<path d="M774.642 360.5H772V366.842H774.642V360.5Z" fill="#FE8A4C"/>
<path d="M778.871 360.5H774.643V366.842H778.871V360.5Z" fill="#F26419"/>
<path d="M740.347 409.376L739.902 376.402H735.446L736.114 409.376H740.347Z" fill="#223C4E"/>
<path d="M740.347 409.376L739.901 376.402H737.005L737.451 409.376H740.347Z" fill="#203748"/>
<path d="M735.668 414.5V408.93H738.565V414.5H735.668Z" fill="#934A24"/>
<path d="M741.461 408.93H738.565V414.5H741.461V408.93Z" fill="#AE4813"/>
<path d="M737.228 371.5H735V376.847H737.228V371.5Z" fill="#934A24"/>
<path d="M740.793 371.5H737.228V376.847H740.793V371.5Z" fill="#AE4813"/>
<path d="M708.601 413.091L708.218 384.718H704.383L704.959 413.091H708.601Z" fill="#264154"/>
<path d="M708.601 413.091L708.218 384.718H705.725L706.109 413.091H708.601Z" fill="#213646"/>
<path d="M704.575 417.5V412.707H707.067V417.5H704.575Z" fill="#C66A39"/>
<path d="M709.56 412.707H707.067V417.5H709.56V412.707Z" fill="#DA5A17"/>
<path d="M705.917 380.5H704V385.101H705.917V380.5Z" fill="#C66A39"/>
<path d="M708.984 380.5H705.917V385.101H708.984V380.5Z" fill="#DA5A17"/>
<path d="M686.606 417.044L686.306 394.806H683.301L683.751 417.044H686.606Z" fill="#2E4D63"/>
<path d="M686.606 417.044L686.306 394.806H684.352L684.653 417.044H686.606Z" fill="#1E3341"/>
<path d="M683.451 420.5V416.744H685.404V420.5H683.451Z" fill="#C05C28"/>
<path d="M687.358 416.744H685.404V420.5H687.358V416.744Z" fill="#9D3B08"/>
<path d="M684.503 391.5H683V395.106H684.503V391.5Z" fill="#C05C28"/>
<path d="M686.907 391.5H684.503V395.106H686.907V391.5Z" fill="#9D3B08"/>
<path d="M1004 332.5H995V352.5H1004V332.5Z" fill="#3C6480"/>
<path d="M1004.5 332.5H995V338.5H1004.5V332.5Z" fill="#274255"/>
<path d="M1004.5 348.5H995V353H1004.5V348.5Z" fill="#274255"/>
<path d="M981.5 370V320.5L991 317.5L992 366.5L981.5 370Z" fill="#274255"/>
<path d="M996 317.5H991V366.5H996V317.5Z" fill="#3C6480"/>
<path d="M898.5 346.5H889.5V366.5H898.5V346.5Z" fill="#3C6480"/>
<path d="M899 346.5H889.5V352.5H899V346.5Z" fill="#274255"/>
<path d="M899 362.5H889.5V367H899V362.5Z" fill="#274255"/>
<path d="M876 384V334.5L885.5 331.5L886.5 380.5L876 384Z" fill="#274255"/>
<path d="M890.5 331.5H885.5V380.5H890.5V331.5Z" fill="#3C6480"/>
<path d="M832.595 362.643H825.31V378.833H832.595V362.643Z" fill="#3C6480"/>
<path d="M833 362.643H825.31V367.5H833V362.643Z" fill="#274255"/>
<path d="M833 375.595H825.31V379.238H833V375.595Z" fill="#274255"/>
<path d="M814.381 393V352.929L822.071 350.5L822.881 390.167L814.381 393Z" fill="#274255"/>
<path d="M826.119 350.5H822.071V390.167H826.119V350.5Z" fill="#3C6480"/>
<path d="M785.243 374.786H779.671V387.167H785.243V374.786Z" fill="#3C6480"/>
<path d="M785.552 374.786H779.671V378.5H785.552V374.786Z" fill="#274255"/>
<path d="M785.552 384.69H779.671V387.476H785.552V384.69Z" fill="#274255"/>
<path d="M771.314 398V367.357L777.195 365.5L777.814 395.833L771.314 398Z" fill="#274255"/>
<path d="M780.29 365.5H777.195V395.833H780.29V365.5Z" fill="#3C6480"/>
<path d="M741.071 387.214H737.043V396.167H741.071V387.214Z" fill="#2E5068"/>
<path d="M741.295 387.214H737.043V389.9H741.295V387.214Z" fill="#274255"/>
<path d="M741.295 394.376H737.043V396.391H741.295V394.376Z" fill="#274255"/>
<path d="M731 404V381.843L735.252 380.5L735.7 402.433L731 404Z" fill="#274255"/>
<path d="M737.49 380.5H735.252V402.433H737.49V380.5Z" fill="#2E5068"/>
<path d="M712.11 393.071H708.767V400.5H712.11V393.071Z" fill="#2E5068"/>
<path d="M712.295 393.071H708.767V395.3H712.295V393.071Z" fill="#274255"/>
<path d="M712.295 399.014H708.767V400.686H712.295V399.014Z" fill="#274255"/>
<path d="M703.752 407V388.614L707.281 387.5L707.652 405.7L703.752 407Z" fill="#274255"/>
<path d="M709.138 387.5H707.281V405.7H709.138V387.5Z" fill="#2E5068"/>
<path d="M689.786 400.357H687.471V405.5H689.786V400.357Z" fill="#2E5068"/>
<path d="M689.914 400.357H687.471V401.9H689.914V400.357Z" fill="#274255"/>
<path d="M689.914 404.471H687.471V405.629H689.914V404.471Z" fill="#274255"/>
<path d="M684 410V397.271L686.443 396.5L686.7 409.1L684 410Z" fill="#274255"/>
<path d="M687.729 396.5H686.443V409.1H687.729V396.5Z" fill="#2E5068"/>
<path d="M822.5 739.373C815.608 743.662 818.748 754.303 826.864 754.164L911.293 752.714C913.314 752.679 915.247 751.881 916.703 750.48L949.331 719.079C957.105 711.598 955.397 698.724 945.941 693.528L919.5 679L822.5 739.373Z" fill="#898685" fill-opacity="0.2"/>
<path d="M806.938 745.66L905.938 744.66L925.938 610.16L793.438 612.66L806.938 745.66Z" fill="#919191"/>
<g filter="url(#filter0_d_628_6128)">
<path d="M796.92 747.697C797.502 751.678 800.95 754.608 804.974 754.539L907.468 752.78C911.462 752.711 914.794 749.706 915.273 745.74L924.938 665.66H784.938L796.92 747.697Z" fill="#FE8A4C"/>
</g>
<path d="M807.438 607.66C788.638 607.66 787.545 615.476 786.438 619.66C784.937 625.327 781.137 638.06 775.937 653.66C770.737 669.26 788.437 671.493 797.937 670.66C823.604 670.16 881.137 669.06 905.937 668.66C930.737 668.26 934.604 660.16 933.437 656.16C932.937 646.493 931.937 624.86 931.937 615.66C931.137 606.06 918.271 604.993 911.937 605.66L807.438 607.66Z" fill="#FE8A4C"/>
<path d="M815.158 612.545C798.802 612.545 797.852 619.367 796.888 623.019C795.583 627.964 792.277 639.077 787.753 652.692C783.229 666.307 798.628 668.256 806.893 667.529C829.223 667.093 879.277 666.133 900.853 665.784C922.429 665.434 925.793 658.365 924.778 654.874C924.343 646.437 923.473 627.557 923.473 619.527C922.777 611.149 911.583 610.218 906.073 610.8L815.158 612.545Z" fill="#DF5E1B"/>
<path d="M913 664.6L923.5 619.5L925 654.5C925 654.5 925.096 658.603 923.5 660C919.5 663.5 913 664.6 913 664.6Z" fill="#CF5719"/>
<path d="M790.938 658.66L800.938 624.66L805.938 667.66C802.042 667.761 798.938 667.66 795.938 666.71C790.781 665.193 789.438 664.16 790.938 658.66Z" fill="#CF5719"/>
<path d="M818.938 652.171C818.938 643.49 830.938 643.49 830.938 652.171V659.882C830.938 667.586 818.938 667.586 818.938 659.882V652.171Z" fill="#FFE0AD"/>
<path d="M818.938 629.171C818.938 620.49 830.938 620.49 830.938 629.171V636.882C830.938 644.586 818.938 644.586 818.938 636.882V629.171Z" fill="#FFE0AD"/>
<path d="M833.938 652.171C833.938 643.49 845.938 643.49 845.938 652.171V659.882C845.938 667.586 833.938 667.586 833.938 659.882V652.171Z" fill="#FFE0AD"/>
<path d="M833.938 629.171C833.938 620.49 845.938 620.49 845.938 629.171V636.882C845.938 644.586 833.938 644.586 833.938 636.882V629.171Z" fill="#FFE0AD"/>
<path d="M847.938 652.171C847.938 643.49 859.938 643.49 859.938 652.171V659.882C859.938 667.586 847.938 667.586 847.938 659.882V652.171Z" fill="#FFE0AD"/>
<path d="M847.938 629.171C847.938 620.49 859.938 620.49 859.938 629.171V636.882C859.938 644.586 847.938 644.586 847.938 636.882V629.171Z" fill="#FFE0AD"/>
<path d="M862.938 652.171C862.938 643.49 874.938 643.49 874.938 652.171V659.882C874.938 667.586 862.938 667.586 862.938 659.882V652.171Z" fill="#FFE0AD"/>
<path d="M862.938 629.171C862.938 620.49 874.938 620.49 874.938 629.171V636.882C874.938 644.586 862.938 644.586 862.938 636.882V629.171Z" fill="#FFE0AD"/>
<path d="M876.938 652.171C876.938 643.49 888.938 643.49 888.938 652.171V659.882C888.938 667.586 876.938 667.586 876.938 659.882V652.171Z" fill="#FFE0AD"/>
<path d="M876.938 629.171C876.938 620.49 888.938 620.49 888.938 629.171V636.882C888.938 644.586 876.938 644.586 876.938 636.882V629.171Z" fill="#FFE0AD"/>
<path d="M890.938 652.171C890.938 643.49 902.938 643.49 902.938 652.171V659.882C902.938 667.586 890.938 667.586 890.938 659.882V652.171Z" fill="#FFE0AD"/>
<path d="M890.938 629.171C890.938 620.49 902.938 620.49 902.938 629.171V636.882C902.938 644.586 890.938 644.586 890.938 636.882V629.171Z" fill="#FFE0AD"/>
<path d="M814.323 653.231L807.519 663.236C807.181 663.734 807 664.322 807 664.923V667.5C847.657 667.409 906.5 666.5 910.5 665V660.796C910.5 659.969 910.158 659.179 909.556 658.612L902.866 652.315C902.31 651.792 901.574 651.5 900.81 651.5H897.15C896.722 651.5 896.298 651.592 895.908 651.769L891.249 653.887C891.083 653.962 890.911 654.022 890.735 654.066L883.738 655.816C883.254 655.937 882.747 655.935 882.263 655.811L866.864 651.851C866.173 651.673 865.5 652.195 865.5 652.908C865.5 653.511 865.011 654 864.408 654H856.842C855.466 654 854.266 654.937 853.932 656.272L852.937 660.251C852.462 662.151 850.323 663.094 848.6 662.162L834.168 654.361C833.729 654.124 833.239 654 832.741 654H825.869C825.624 654 825.38 653.97 825.142 653.91L817.531 652.008C816.311 651.703 815.03 652.191 814.323 653.231Z" fill="#274255"/>
<path d="M807.938 707.171C807.938 698.49 819.938 698.49 819.938 707.171V714.882C819.938 722.586 807.938 722.586 807.938 714.882V707.171Z" fill="#192D3B"/>
<path d="M806.938 684.171C806.938 675.49 818.938 675.49 818.938 684.171V691.882C818.938 699.586 806.938 699.586 806.938 691.882V684.171Z" fill="#192D3B"/>
<path d="M823.938 707.171C823.938 698.49 835.938 698.49 835.938 707.171V714.882C835.938 722.586 823.938 722.586 823.938 714.882V707.171Z" fill="#192D3B"/>
<path d="M823.938 684.171C823.938 675.49 835.938 675.49 835.938 684.171V691.882C835.938 699.586 823.938 699.586 823.938 691.882V684.171Z" fill="#192D3B"/>
<path d="M840.938 707.171C840.938 698.49 852.938 698.49 852.938 707.171V714.882C852.938 722.586 840.938 722.586 840.938 714.882V707.171Z" fill="#192D3B"/>
<path d="M840.938 684.171C840.938 675.49 852.938 675.49 852.938 684.171V691.882C852.938 699.586 840.938 699.586 840.938 691.882V684.171Z" fill="#192D3B"/>
<path d="M856.938 707.171C856.938 698.49 868.938 698.49 868.938 707.171V714.882C868.938 722.586 856.938 722.586 856.938 714.882V707.171Z" fill="#192D3B"/>
<path d="M856.938 684.171C856.938 675.49 868.938 675.49 868.938 684.171V691.882C868.938 699.586 856.938 699.586 856.938 691.882V684.171Z" fill="#192D3B"/>
<path d="M872.938 707.171C872.938 698.49 884.938 698.49 884.938 707.171V714.882C884.938 722.586 872.938 722.586 872.938 714.882V707.171Z" fill="#192D3B"/>
<path d="M872.938 684.171C872.938 675.49 884.938 675.49 884.938 684.171V691.882C884.938 699.586 872.938 699.586 872.938 691.882V684.171Z" fill="#192D3B"/>
<path d="M888.938 707.171C888.938 698.49 900.938 698.49 900.938 707.171V714.882C900.938 722.586 888.938 722.586 888.938 714.882V707.171Z" fill="#192D3B"/>
<path d="M808.938 730.171C808.938 721.49 820.938 721.49 820.938 730.171V737.882C820.938 745.586 808.938 745.586 808.938 737.882V730.171Z" fill="#192D3B"/>
<path d="M823.938 730.171C823.938 721.49 835.938 721.49 835.938 730.171V737.882C835.938 745.586 823.938 745.586 823.938 737.882V730.171Z" fill="#192D3B"/>
<path d="M840.938 730.171C840.938 721.49 852.938 721.49 852.938 730.171V737.882C852.938 745.586 840.938 745.586 840.938 737.882V730.171Z" fill="#192D3B"/>
<path d="M856.938 730.171C856.938 721.49 868.938 721.49 868.938 730.171V737.882C868.938 745.586 856.938 745.586 856.938 737.882V730.171Z" fill="#192D3B"/>
<path d="M872.938 730.171C872.938 721.49 884.938 721.49 884.938 730.171V737.882C884.938 745.586 872.938 745.586 872.938 737.882V730.171Z" fill="#192D3B"/>
<path d="M888.938 730.171C888.938 721.49 900.938 721.49 900.938 730.171V737.882C900.938 745.586 888.938 745.586 888.938 737.882V730.171Z" fill="#192D3B"/>
<path d="M888.938 684.171C888.938 675.49 900.938 675.49 900.938 684.171V691.882C900.938 699.586 888.938 699.586 888.938 691.882V684.171Z" fill="#192D3B"/>
<defs>
<filter id="filter0_d_628_6128" x="780.938" y="662.66" width="148" height="96.8804" filterUnits="userSpaceOnUse" color-interpolation-filters="sRGB">
<feFlood flood-opacity="0" result="BackgroundImageFix"/>
<feColorMatrix in="SourceAlpha" type="matrix" values="0 0 0 0 0 0 0 0 0 0 0 0 0 0 0 0 0 0 127 0" result="hardAlpha"/>
<feOffset dy="1"/>
<feGaussianBlur stdDeviation="2"/>
<feComposite in2="hardAlpha" operator="out"/>
<feColorMatrix type="matrix" values="0 0 0 0 0 0 0 0 0 0 0 0 0 0 0 0 0 0 0.5 0"/>
<feBlend mode="normal" in2="BackgroundImageFix" result="effect1_dropShadow_628_6128"/>
<feBlend mode="normal" in="SourceGraphic" in2="effect1_dropShadow_628_6128" result="shape"/>
</filter>
<linearGradient id="paint0_linear_628_6128" x1="1066.5" y1="344.5" x2="1070.5" y2="453.5" gradientUnits="userSpaceOnUse">
<stop offset="0.383602" stop-color="#36889F" stop-opacity="0"/>
<stop offset="1" stop-color="#36889F"/>
</linearGradient>
<linearGradient id="paint1_linear_628_6128" x1="941.205" y1="378.757" x2="943.896" y2="453.504" gradientUnits="userSpaceOnUse">
<stop offset="0.383602" stop-color="#36889F" stop-opacity="0"/>
<stop offset="1" stop-color="#36889F"/>
</linearGradient>
<linearGradient id="paint2_linear_628_6128" x1="860.205" y1="376.257" x2="862.897" y2="451.004" gradientUnits="userSpaceOnUse">
<stop offset="0.62114" stop-color="#36889F" stop-opacity="0"/>
<stop offset="1" stop-color="#36889F"/>
</linearGradient>
</defs>
</svg>
