<svg width="1440" height="801" viewBox="0 0 1440 801" fill="none" xmlns="http://www.w3.org/2000/svg">
<rect y="1" width="1440" height="800" fill="#FFE6BC"/>
<path d="M1055.5 801L663.5 568L0 584.5V801H1055.5Z" fill="#F6D7A3"/>
<path d="M645 280.5V99L704 1H973L645 280.5Z" fill="#F2CA89"/>
<path d="M1186 801V1H1440V801H1186Z" fill="#F2D19A"/>
<path d="M688 276.5L669 292L668 557L686.5 568L688 276.5Z" fill="#FFF4CB" stroke="#EFAF33"/>
<path d="M826 177L778 212L778.5 619.5L829 645L826 177Z" fill="#FFF4CB" stroke="#EFAF33"/>
<path d="M986.5 63.5L892.5 130.5L897.5 680.5L995 732.5L986.5 63.5Z" fill="#FFF4CB" stroke="#EFAF33"/>
<path d="M892 130L826 177L829.5 645L897 680.5L892 130Z" fill="#FFF4CB" stroke="#EFAF33"/>
<path d="M778 211.815L741 238.5L739 599L778 619.22V211.815Z" fill="#FFF4CB" stroke="#EFAF33"/>
<path d="M741 239L712.5 259.5L709 582.5L738.5 598.7L741 239Z" fill="#FFF4CB" stroke="#EFAF33"/>
<path d="M712 259.5L688 276.5L687 568.5L709 582L712 259.5Z" fill="#FFF4CB" stroke="#EFAF33"/>
<path d="M1074.5 1L987 62L995.5 733.5L1119 800H1155.5L1142 1H1074.5Z" fill="#FFF4CB"/>
<path d="M1151 535L992.5 513L995.5 733.5L1119 800H1155.5L1151 535Z" fill="#F9C879"/>
<path d="M992 508L896 498L897.5 681.5L995 732.5L992 508Z" fill="#F9C879"/>
<path d="M895.5 489L828 479L829.5 645.5L897 681L895.5 489Z" fill="#F9C879"/>
<path d="M826.5 480L778 475.5L779 619.5L828.5 645L826.5 480Z" fill="#EAAA08"/>
<path d="M827.5 479L778 475.5L779 619.5L829 645L827.5 479Z" fill="#F9C879"/>
<path d="M777 478L740 473L739 599L778 619L777 478Z" fill="#EAAA08"/>
<path d="M777.5 478L740 473L739 599L778 619L777.5 478Z" fill="#F9C879"/>
<path d="M739.5 472L710 469L709 582L738.5 599L739.5 472Z" fill="#F9C879"/>
<path d="M709.5 468L687 467L686.5 568.5L708.5 581.5L709.5 468Z" fill="#F9C879"/>
<path d="M686.5 466L667.5 463L668 557.5L686 568L686.5 466Z" fill="#F9C879"/>
<path d="M1075 1.5L987 63V184L1144 112V1.5H1075Z" fill="#F9C879" stroke="#F0B31C"/>
<path d="M987 63L892 129L893 229L987.5 184L987 63Z" fill="#F9C879" stroke="#F0B31C"/>
<path d="M892 129L826 177L826.5 262L893 229L892 129Z" fill="#F9C879" stroke="#F0B31C"/>
<path d="M826.5 177L778 211.5V284.5L826.5 262.145V177Z" fill="#F9C879" stroke="#F0B31C"/>
<path d="M778 211.5L741 238.5V301L778 283V211.5Z" fill="#F9C879" stroke="#F0B31C"/>
<path d="M741 238.5L711.5 260V314L741 301V238.5Z" fill="#F9C879" stroke="#F0B31C"/>
<path d="M711.5 260L688 276.5V325L711.5 314V260Z" fill="#F9C879" stroke="#F0B31C"/>
<path d="M688 276.5L669 291.5V334L688 324.5V276.5Z" fill="#F9C879" stroke="#F0B31C"/>
<path d="M663.5 467.5V462L682 466.5V472L663.5 467.5Z" fill="#274255"/>
<path d="M671 462H663.5L682 466.5L686 465L671 462Z" fill="#32566F"/>
<path d="M686 465L682 466.5V472L686 471V465Z" fill="#1C2F3D"/>
<ellipse cx="1060.5" cy="333" rx="57.5" ry="137" fill="#274255"/>
<ellipse cx="938.5" cy="351.5" rx="41.5" ry="113.5" fill="#274255"/>
<ellipse cx="856.5" cy="367.5" rx="29.5" ry="92.5" fill="#274255"/>
<ellipse cx="801.5" cy="378" rx="20.5" ry="81" fill="#274255"/>
<ellipse cx="758" cy="383" rx="17" ry="71" fill="#274255"/>
<ellipse cx="725" cy="390.5" rx="14" ry="63.5" fill="#274255"/>
<ellipse cx="698.5" cy="395" rx="9.5" ry="57" fill="#274255"/>
<ellipse cx="678.5" cy="395.5" rx="7.5" ry="48.5" fill="#274255"/>
<ellipse cx="1070" cy="328" rx="47" ry="126" fill="#E6FAFF"/>
<ellipse cx="1070" cy="328" rx="47" ry="126" fill="#E6FAFF"/>
<path d="M1070 454C1095.96 454 1109 404 1112 384L1029 390C1036 418 1046.5 454 1070 454Z" fill="url(#paint0_linear_803_1905)"/>
<ellipse cx="681" cy="395.5" rx="4" ry="44.5" fill="#274255"/>
<ellipse cx="943.5" cy="354" rx="34.5" ry="100" fill="#E6FAFF"/>
<ellipse cx="943.5" cy="354" rx="34.5" ry="100" fill="#CEF4FF"/>
<ellipse cx="861" cy="371.5" rx="23" ry="79.5" fill="#E6FAFF"/>
<ellipse cx="861" cy="371.5" rx="23" ry="79.5" fill="#C0EFFC"/>
<ellipse cx="806.5" cy="382.5" rx="11.5" ry="67.5" fill="#E6FAFF"/>
<ellipse cx="806.5" cy="382.5" rx="11.5" ry="67.5" fill="#B1EEFF"/>
<ellipse cx="763.5" cy="388" rx="11.5" ry="57" fill="#E6FAFF"/>
<ellipse cx="763.5" cy="388" rx="11.5" ry="57" fill="#B1EEFF"/>
<ellipse cx="730" cy="387.5" rx="6" ry="44.5" fill="#E6FAFF"/>
<ellipse cx="730" cy="387.5" rx="6" ry="44.5" fill="#78BCCF"/>
<ellipse cx="704" cy="394.5" rx="3" ry="35.5" fill="#E6FAFF"/>
<ellipse cx="704" cy="394.5" rx="3" ry="35.5" fill="#36889F"/>
<ellipse cx="683.5" cy="396.5" rx="2.5" ry="26.5" fill="#E6FAFF"/>
<ellipse cx="683.5" cy="396.5" rx="2.5" ry="26.5" fill="#36889F"/>
<path d="M779 277H777V282L778 285L779 277Z" fill="#274255"/>
<path d="M741 297H740V301.5L741 303V297Z" fill="#274255"/>
<path d="M712.5 312H710.5V315L712.5 316.5V312Z" fill="#274255"/>
<path d="M688.5 324H687V327L688.5 328V324Z" fill="#274255"/>
<path d="M824 254L778 276.5V282L824 261V254Z" fill="#535D6B"/>
<path d="M829 261.5L827 259.5L890 227.5L892.5 229L829 261.5Z" fill="#464E59"/>
<path d="M780 284L778 282L824 261L826 263L780 284Z" fill="#464E59"/>
<path d="M742 302.5L741 301L777 282L778 285L742 302.5Z" fill="#464E59"/>
<path d="M713 317L712 316L740 301.5L741 303L713 317Z" fill="#464E59"/>
<path d="M689 327.5L687.5 326.5L710.5 315L712 316L689 327.5Z" fill="#464E59"/>
<path d="M670.5 337.5L669 336.5L687 327L688.5 328L670.5 337.5Z" fill="#464E59"/>
<path d="M892.5 219H890V227.5L892.5 229V219Z" fill="#274255"/>
<path d="M826 254H824V261L826 263V254Z" fill="#274255"/>
<path d="M890 219L827 252V259.5L890 228V219Z" fill="#535D6B"/>
<path d="M418 576V2H108.5V584L418 576Z" fill="#FFE0AD"/>
<path d="M645.5 248L507 245V570H645.5V248Z" fill="#DFB46F"/>
<path d="M416.7 1L417 91L645 99L704.5 1H416.7Z" fill="#FFF4CB"/>
<path d="M114.5 297.5L58 264.5L341.5 18.5L354.5 84.5L114.5 297.5Z" fill="#F9DBAA"/>
<path d="M495.5 25.5L341.5 18.5L355 89L482 94L495.5 25.5Z" fill="#F9DBAA"/>
<path d="M58 264V1H496.5V25.5L341 18.5L58 264Z" fill="#FFF4CB"/>
<path d="M1328 801V0.5H1440V801H1328Z" fill="#E7C998"/>
<path d="M514.5 570.5V252.5L637.5 255V570.5H514.5Z" fill="#F6FFE3"/>
<path d="M0 778L46 774.5V800H0V778Z" fill="#C0EFFC"/>
<path d="M496 393L40 402.5H0V798.5H109L161.5 745L496.5 723L496 393Z" fill="#FFE0AD"/>
<path d="M45.5 586V402.373L0 402.5V606L45.5 586Z" fill="#FFE6BC"/>
<path d="M153 581C116.667 582.667 44.3001 586 45.5001 586L0.5 606.5V646.5L41 643.5L153 581Z" fill="#FFE0AD"/>
<path d="M44 774.5L41 643.5L155 580V673L44 774.5Z" fill="#F9DBAA"/>
<path d="M42 643.5L1 646.5V800.5H46.5L42 643.5Z" fill="#FFE6BC"/>
<path d="M155 673L46 772.5V801H107L155 751.618V673Z" fill="#F2CA89"/>
<path d="M496.5 644L155 669.5V751.5L496.5 723V644Z" fill="#F2CA89"/>
<path d="M1239 300L1235 1.5H1440V289L1330 285L1239 300Z" fill="#FFF4CB"/>
<path d="M1330 1H1235L1239 300L1330 285V1Z" fill="#FAECB6"/>
<path d="M989 181.5V171L1139 100V112L989 181.5Z" fill="#535D6B"/>
<path d="M1144 101L1139 100V112L1144 113V101Z" fill="#274255"/>
<path d="M681 281.5H656.5L1002 1H1074.5L681 281.5Z" fill="#FFF4CB"/>
<path d="M973 1L645.5 280L656.5 281.5L1002 1H973Z" fill="#DFB46F"/>
<path d="M1168.5 1H1142L1155 801H1175.5L1168.5 1Z" fill="#FAECB6"/>
<path d="M1155.5 1H1142L1155 801H1168.5L1155.5 1Z" fill="#DFB46F"/>
<path d="M894 226V218L983.5 174V182.5L894 226Z" fill="#535D6B"/>
<path d="M989 181L1139 112L1144 113L991.5 183.5L989 181Z" fill="#464E59"/>
<path d="M896 228L894 226L984 182L987.5 184L896 228Z" fill="#464E59"/>
<path d="M684 472.5V465L708.5 467.5V476L684 472.5Z" fill="#274255"/>
<path d="M706.5 476V468L738.5 470V478.5L706.5 476Z" fill="#274255"/>
<path d="M777.5 474L736.5 469V478L777.5 485V474Z" fill="#274255"/>
<path d="M987.5 174H983.5V182.7L987.5 184V174Z" fill="#274255"/>
<path d="M774.5 485.5V473.5L827 479V492.5L774.5 485.5Z" fill="#32546C"/>
<path d="M886.5 484.5L822 478V491.5L886.5 501V484.5Z" fill="#3C6480"/>
<path d="M893 484L886.5 484.5V501L893 500.5V484Z" fill="#274255"/>
<path d="M889.5 500.5V484L980 492V510L889.5 500.5Z" fill="#3C6480"/>
<path d="M991.5 492.5L980 492V510.5L991.5 511V492.5Z" fill="#274255"/>
<path d="M777 277L741 295V301L777 282V277Z" fill="#535D6B"/>
<path d="M740 297L712 311V316L740 301.5V297Z" fill="#535D6B"/>
<path d="M710.5 312L687.5 324V326.5L710.5 315V312Z" fill="#535D6B"/>
<path d="M687 324L669 333.5V336.5L687 327V324Z" fill="#535D6B"/>
<path d="M981 511.5V491.5L1137 510V535L981 511.5Z" fill="#3C6480"/>
<path d="M1137 535V510H1150V535H1137Z" fill="#274255"/>
<ellipse cx="628" cy="394.5" rx="53" ry="55.5" fill="#274255"/>
<ellipse cx="629" cy="394" rx="44" ry="45" fill="#36889F"/>
<path d="M1124 270H1110L1113 364.5H1127L1124 270Z" fill="#3C6480"/>
<path d="M1111 379.5V364H1121.5V379.5H1111Z" fill="#FE8A4C"/>
<path d="M1124 270H1114.5L1117 364H1127L1124 270Z" fill="#274255"/>
<path d="M1130 364H1121.5V379.5H1130V364Z" fill="#F26419"/>
<path d="M1117 255L1108.5 256V270.5L1117 270V255Z" fill="#FE8A4C"/>
<path d="M1126.5 255H1117V270H1126.5V255Z" fill="#F26419"/>
<path d="M943.651 454C960 454 973 418 974.5 397.5L915 410.114C919.892 429.314 927.301 454 943.651 454Z" fill="url(#paint1_linear_803_1905)"/>
<path d="M860.5 451.5C866 451.5 875 443 880.5 416.5L843.5 423.5C848.392 442.7 855 451.5 860.5 451.5Z" fill="url(#paint2_linear_803_1905)"/>
<path d="M980.5 382.5L979.5 308.5H969.5L971 382.5H980.5Z" fill="#3C6480"/>
<path d="M980.5 382.5L979.5 308.5H973L974 382.5H980.5Z" fill="#274255"/>
<path d="M970 394V381.5H976.5V394H970Z" fill="#FE8A4C"/>
<path d="M983 381.5H976.5V394H983V381.5Z" fill="#F26419"/>
<path d="M973.5 297.5H968.5V309.5H973.5V297.5Z" fill="#FE8A4C"/>
<path d="M981.5 297.5H973.5V309.5H981.5V297.5Z" fill="#F26419"/>
<path d="M891.01 391.907L890.176 330.176H881.834L883.086 391.907H891.01Z" fill="#3C6480"/>
<path d="M891.01 391.907L890.176 330.176H884.754L885.588 391.907H891.01Z" fill="#274255"/>
<path d="M882.251 401.5V391.073H887.674V401.5H882.251Z" fill="#FE8A4C"/>
<path d="M893.096 391.073H887.674V401.5H893.096V391.073Z" fill="#F26419"/>
<path d="M885.171 321H881V331.01H885.171V321Z" fill="#FE8A4C"/>
<path d="M891.844 321H885.171V331.01H891.844V321Z" fill="#F26419"/>
<path d="M825.448 399.759L824.828 353.828H818.621L819.552 399.759H825.448Z" fill="#3C6480"/>
<path d="M825.448 399.759L824.828 353.828H820.793L821.414 399.759H825.448Z" fill="#274255"/>
<path d="M818.931 406.897V399.138H822.966V406.897H818.931Z" fill="#FE8A4C"/>
<path d="M827 399.138H822.966V406.897H827V399.138Z" fill="#F26419"/>
<path d="M821.103 347H818V354.448H821.103V347Z" fill="#FE8A4C"/>
<path d="M826.069 347H821.104V354.448H826.069V347Z" fill="#F26419"/>
<path d="M778.342 405.922L777.814 366.813H772.529L773.321 405.922H778.342Z" fill="#3C6480"/>
<path d="M778.342 405.922L777.813 366.813H774.378L774.907 405.922H778.342Z" fill="#274255"/>
<path d="M772.793 412V405.394H776.228V412H772.793Z" fill="#FE8A4C"/>
<path d="M779.663 405.394H776.228V412H779.663V405.394Z" fill="#F26419"/>
<path d="M774.642 361H772V367.342H774.642V361Z" fill="#FE8A4C"/>
<path d="M778.871 361H774.643V367.342H778.871V361Z" fill="#F26419"/>
<path d="M740.347 409.876L739.902 376.902H735.446L736.114 409.876H740.347Z" fill="#223C4E"/>
<path d="M740.347 409.876L739.901 376.902H737.005L737.451 409.876H740.347Z" fill="#203748"/>
<path d="M735.668 415V409.43H738.565V415H735.668Z" fill="#934A24"/>
<path d="M741.461 409.43H738.565V415H741.461V409.43Z" fill="#AE4813"/>
<path d="M737.228 372H735V377.347H737.228V372Z" fill="#934A24"/>
<path d="M740.793 372H737.228V377.347H740.793V372Z" fill="#AE4813"/>
<path d="M708.601 413.591L708.218 385.218H704.384L704.959 413.591H708.601Z" fill="#264154"/>
<path d="M708.601 413.591L708.218 385.218H705.725L706.109 413.591H708.601Z" fill="#213646"/>
<path d="M704.575 418V413.207H707.067V418H704.575Z" fill="#C66A39"/>
<path d="M709.56 413.207H707.067V418H709.56V413.207Z" fill="#DA5A17"/>
<path d="M705.917 381H704V385.601H705.917V381Z" fill="#C66A39"/>
<path d="M708.985 381H705.917V385.601H708.985V381Z" fill="#DA5A17"/>
<path d="M686.606 417.544L686.306 395.306H683.301L683.751 417.544H686.606Z" fill="#2E4D63"/>
<path d="M686.606 417.544L686.306 395.306H684.352L684.653 417.544H686.606Z" fill="#1E3341"/>
<path d="M683.451 421V417.244H685.404V421H683.451Z" fill="#C05C28"/>
<path d="M687.357 417.244H685.404V421H687.357V417.244Z" fill="#9D3B08"/>
<path d="M684.503 392H683V395.606H684.503V392Z" fill="#C05C28"/>
<path d="M686.907 392H684.503V395.606H686.907V392Z" fill="#9D3B08"/>
<path d="M1004 333H995V353H1004V333Z" fill="#3C6480"/>
<path d="M1004.5 333H995V339H1004.5V333Z" fill="#274255"/>
<path d="M1004.5 349H995V353.5H1004.5V349Z" fill="#274255"/>
<path d="M981.5 370.5V321L991 318L992 367L981.5 370.5Z" fill="#274255"/>
<path d="M996 318H991V367H996V318Z" fill="#3C6480"/>
<path d="M898.5 347H889.5V367H898.5V347Z" fill="#3C6480"/>
<path d="M899 347H889.5V353H899V347Z" fill="#274255"/>
<path d="M899 363H889.5V367.5H899V363Z" fill="#274255"/>
<path d="M876 384.5V335L885.5 332L886.5 381L876 384.5Z" fill="#274255"/>
<path d="M890.5 332H885.5V381H890.5V332Z" fill="#3C6480"/>
<path d="M832.595 363.143H825.309V379.333H832.595V363.143Z" fill="#3C6480"/>
<path d="M833 363.143H825.309V368H833V363.143Z" fill="#274255"/>
<path d="M833 376.095H825.309V379.738H833V376.095Z" fill="#274255"/>
<path d="M814.381 393.5V353.429L822.071 351L822.881 390.667L814.381 393.5Z" fill="#274255"/>
<path d="M826.119 351H822.071V390.667H826.119V351Z" fill="#3C6480"/>
<path d="M785.243 375.286H779.671V387.667H785.243V375.286Z" fill="#3C6480"/>
<path d="M785.552 375.286H779.671V379H785.552V375.286Z" fill="#274255"/>
<path d="M785.552 385.19H779.671V387.976H785.552V385.19Z" fill="#274255"/>
<path d="M771.314 398.5V367.857L777.195 366L777.814 396.333L771.314 398.5Z" fill="#274255"/>
<path d="M780.29 366H777.195V396.333H780.29V366Z" fill="#3C6480"/>
<path d="M741.071 387.714H737.043V396.667H741.071V387.714Z" fill="#2E5068"/>
<path d="M741.295 387.714H737.043V390.4H741.295V387.714Z" fill="#274255"/>
<path d="M741.295 394.876H737.043V396.89H741.295V394.876Z" fill="#274255"/>
<path d="M731 404.5V382.343L735.252 381L735.7 402.933L731 404.5Z" fill="#274255"/>
<path d="M737.491 381H735.252V402.933H737.491V381Z" fill="#2E5068"/>
<path d="M712.109 393.571H708.767V401H712.109V393.571Z" fill="#2E5068"/>
<path d="M712.295 393.571H708.767V395.8H712.295V393.571Z" fill="#274255"/>
<path d="M712.295 399.514H708.767V401.186H712.295V399.514Z" fill="#274255"/>
<path d="M703.752 407.5V389.114L707.281 388L707.652 406.2L703.752 407.5Z" fill="#274255"/>
<path d="M709.138 388H707.281V406.2H709.138V388Z" fill="#2E5068"/>
<path d="M689.786 400.857H687.471V406H689.786V400.857Z" fill="#2E5068"/>
<path d="M689.914 400.857H687.471V402.4H689.914V400.857Z" fill="#274255"/>
<path d="M689.914 404.971H687.471V406.129H689.914V404.971Z" fill="#274255"/>
<path d="M684 410.5V397.771L686.443 397L686.7 409.6L684 410.5Z" fill="#274255"/>
<path d="M687.729 397H686.443V409.6H687.729V397Z" fill="#2E5068"/>
<path d="M822.5 739.873C815.608 744.162 818.748 754.803 826.864 754.664L911.293 753.214C913.314 753.179 915.247 752.381 916.703 750.98L949.331 719.579C957.105 712.098 955.397 699.224 945.941 694.028L919.5 679.5L822.5 739.873Z" fill="#898685" fill-opacity="0.2"/>
<path d="M806.938 746.16L905.938 745.16L925.938 610.66L793.438 613.16L806.938 746.16Z" fill="#919191"/>
<g filter="url(#filter0_d_803_1905)">
<path d="M796.92 748.197C797.502 752.178 800.95 755.108 804.974 755.039L907.468 753.28C911.462 753.211 914.794 750.206 915.273 746.24L924.938 666.16H784.938L796.92 748.197Z" fill="#FE8A4C"/>
</g>
<path d="M807.438 608.16C788.638 608.16 787.545 615.976 786.438 620.16C784.937 625.827 781.137 638.56 775.937 654.16C770.737 669.76 788.437 671.993 797.937 671.16C823.604 670.66 881.137 669.56 905.937 669.16C930.737 668.76 934.604 660.66 933.437 656.66C932.937 646.993 931.937 625.36 931.937 616.16C931.137 606.56 918.271 605.493 911.937 606.16L807.438 608.16Z" fill="#FE8A4C"/>
<path d="M815.158 613.045C798.802 613.045 797.852 619.867 796.888 623.519C795.583 628.464 792.277 639.577 787.753 653.192C783.229 666.807 798.628 668.756 806.893 668.029C829.223 667.593 879.277 666.633 900.853 666.284C922.429 665.934 925.793 658.865 924.778 655.374C924.343 646.937 923.473 628.057 923.473 620.027C922.777 611.649 911.583 610.718 906.073 611.3L815.158 613.045Z" fill="#DF5E1B"/>
<path d="M913 665.1L923.5 620L925 655C925 655 925.096 659.103 923.5 660.5C919.5 664 913 665.1 913 665.1Z" fill="#CF5719"/>
<path d="M790.938 659.16L800.938 625.16L805.938 668.16C802.042 668.261 798.938 668.16 795.938 667.21C790.781 665.693 789.438 664.66 790.938 659.16Z" fill="#CF5719"/>
<path d="M818.938 652.671C818.938 643.99 830.938 643.99 830.938 652.671V660.382C830.938 668.086 818.938 668.086 818.938 660.382V652.671Z" fill="#FFE0AD"/>
<path d="M818.938 629.671C818.938 620.99 830.938 620.99 830.938 629.671V637.382C830.938 645.086 818.938 645.086 818.938 637.382V629.671Z" fill="#FFE0AD"/>
<path d="M833.938 652.671C833.938 643.99 845.938 643.99 845.938 652.671V660.382C845.938 668.086 833.938 668.086 833.938 660.382V652.671Z" fill="#FFE0AD"/>
<path d="M833.938 629.671C833.938 620.99 845.938 620.99 845.938 629.671V637.382C845.938 645.086 833.938 645.086 833.938 637.382V629.671Z" fill="#FFE0AD"/>
<path d="M847.938 652.671C847.938 643.99 859.938 643.99 859.938 652.671V660.382C859.938 668.086 847.938 668.086 847.938 660.382V652.671Z" fill="#FFE0AD"/>
<path d="M847.938 629.671C847.938 620.99 859.938 620.99 859.938 629.671V637.382C859.938 645.086 847.938 645.086 847.938 637.382V629.671Z" fill="#FFE0AD"/>
<path d="M862.938 652.671C862.938 643.99 874.938 643.99 874.938 652.671V660.382C874.938 668.086 862.938 668.086 862.938 660.382V652.671Z" fill="#FFE0AD"/>
<path d="M862.938 629.671C862.938 620.99 874.938 620.99 874.938 629.671V637.382C874.938 645.086 862.938 645.086 862.938 637.382V629.671Z" fill="#FFE0AD"/>
<path d="M876.938 652.671C876.938 643.99 888.938 643.99 888.938 652.671V660.382C888.938 668.086 876.938 668.086 876.938 660.382V652.671Z" fill="#FFE0AD"/>
<path d="M876.938 629.671C876.938 620.99 888.938 620.99 888.938 629.671V637.382C888.938 645.086 876.938 645.086 876.938 637.382V629.671Z" fill="#FFE0AD"/>
<path d="M890.938 652.671C890.938 643.99 902.938 643.99 902.938 652.671V660.382C902.938 668.086 890.938 668.086 890.938 660.382V652.671Z" fill="#FFE0AD"/>
<path d="M890.938 629.671C890.938 620.99 902.938 620.99 902.938 629.671V637.382C902.938 645.086 890.938 645.086 890.938 637.382V629.671Z" fill="#FFE0AD"/>
<path d="M814.323 653.731L807.519 663.736C807.181 664.234 807 664.822 807 665.423V668C847.657 667.909 906.5 667 910.5 665.5V661.296C910.5 660.469 910.158 659.679 909.556 659.112L902.866 652.815C902.31 652.292 901.574 652 900.81 652H897.15C896.722 652 896.298 652.092 895.908 652.269L891.249 654.387C891.083 654.462 890.911 654.522 890.735 654.566L883.738 656.316C883.254 656.437 882.747 656.435 882.263 656.311L866.864 652.351C866.173 652.173 865.5 652.695 865.5 653.408C865.5 654.011 865.011 654.5 864.408 654.5H856.842C855.466 654.5 854.266 655.437 853.932 656.772L852.937 660.751C852.462 662.651 850.323 663.594 848.6 662.662L834.168 654.861C833.729 654.624 833.239 654.5 832.741 654.5H825.869C825.624 654.5 825.38 654.47 825.142 654.41L817.531 652.508C816.311 652.203 815.03 652.691 814.323 653.731Z" fill="#274255"/>
<path d="M807.938 707.671C807.938 698.99 819.938 698.99 819.938 707.671V715.382C819.938 723.086 807.938 723.086 807.938 715.382V707.671Z" fill="#192D3B"/>
<path d="M806.938 684.671C806.938 675.99 818.938 675.99 818.938 684.671V692.382C818.938 700.086 806.938 700.086 806.938 692.382V684.671Z" fill="#192D3B"/>
<path d="M823.938 707.671C823.938 698.99 835.938 698.99 835.938 707.671V715.382C835.938 723.086 823.938 723.086 823.938 715.382V707.671Z" fill="#192D3B"/>
<path d="M823.938 684.671C823.938 675.99 835.938 675.99 835.938 684.671V692.382C835.938 700.086 823.938 700.086 823.938 692.382V684.671Z" fill="#192D3B"/>
<path d="M840.938 707.671C840.938 698.99 852.938 698.99 852.938 707.671V715.382C852.938 723.086 840.938 723.086 840.938 715.382V707.671Z" fill="#192D3B"/>
<path d="M840.938 684.671C840.938 675.99 852.938 675.99 852.938 684.671V692.382C852.938 700.086 840.938 700.086 840.938 692.382V684.671Z" fill="#192D3B"/>
<path d="M856.938 707.671C856.938 698.99 868.938 698.99 868.938 707.671V715.382C868.938 723.086 856.938 723.086 856.938 715.382V707.671Z" fill="#192D3B"/>
<path d="M856.938 684.671C856.938 675.99 868.938 675.99 868.938 684.671V692.382C868.938 700.086 856.938 700.086 856.938 692.382V684.671Z" fill="#192D3B"/>
<path d="M872.938 707.671C872.938 698.99 884.938 698.99 884.938 707.671V715.382C884.938 723.086 872.938 723.086 872.938 715.382V707.671Z" fill="#192D3B"/>
<path d="M872.938 684.671C872.938 675.99 884.938 675.99 884.938 684.671V692.382C884.938 700.086 872.938 700.086 872.938 692.382V684.671Z" fill="#192D3B"/>
<path d="M888.938 707.671C888.938 698.99 900.938 698.99 900.938 707.671V715.382C900.938 723.086 888.938 723.086 888.938 715.382V707.671Z" fill="#192D3B"/>
<path d="M808.938 730.671C808.938 721.99 820.938 721.99 820.938 730.671V738.382C820.938 746.086 808.938 746.086 808.938 738.382V730.671Z" fill="#192D3B"/>
<path d="M823.938 730.671C823.938 721.99 835.938 721.99 835.938 730.671V738.382C835.938 746.086 823.938 746.086 823.938 738.382V730.671Z" fill="#192D3B"/>
<path d="M840.938 730.671C840.938 721.99 852.938 721.99 852.938 730.671V738.382C852.938 746.086 840.938 746.086 840.938 738.382V730.671Z" fill="#192D3B"/>
<path d="M856.938 730.671C856.938 721.99 868.938 721.99 868.938 730.671V738.382C868.938 746.086 856.938 746.086 856.938 738.382V730.671Z" fill="#192D3B"/>
<path d="M872.938 730.671C872.938 721.99 884.938 721.99 884.938 730.671V738.382C884.938 746.086 872.938 746.086 872.938 738.382V730.671Z" fill="#192D3B"/>
<path d="M888.938 730.671C888.938 721.99 900.938 721.99 900.938 730.671V738.382C900.938 746.086 888.938 746.086 888.938 738.382V730.671Z" fill="#192D3B"/>
<path d="M888.938 684.671C888.938 675.99 900.938 675.99 900.938 684.671V692.382C900.938 700.086 888.938 700.086 888.938 692.382V684.671Z" fill="#192D3B"/>
<path d="M129.575 701.129H128.024C127.964 700.798 127.853 700.506 127.691 700.254C127.529 700.002 127.33 699.789 127.094 699.613C126.859 699.437 126.596 699.305 126.304 699.215C126.016 699.126 125.709 699.081 125.384 699.081C124.798 699.081 124.272 699.228 123.808 699.523C123.348 699.818 122.983 700.251 122.714 700.821C122.449 701.391 122.317 702.087 122.317 702.909C122.317 703.738 122.449 704.437 122.714 705.007C122.983 705.577 123.349 706.008 123.813 706.3C124.277 706.591 124.799 706.737 125.379 706.737C125.701 706.737 126.006 706.694 126.294 706.608C126.586 706.518 126.849 706.388 127.085 706.215C127.32 706.043 127.519 705.832 127.681 705.584C127.847 705.332 127.961 705.044 128.024 704.719L129.575 704.724C129.492 705.224 129.332 705.685 129.093 706.106C128.858 706.523 128.554 706.885 128.183 707.19C127.815 707.491 127.394 707.725 126.92 707.891C126.446 708.056 125.929 708.139 125.369 708.139C124.488 708.139 123.702 707.93 123.013 707.513C122.323 707.092 121.78 706.49 121.382 705.708C120.988 704.926 120.79 703.993 120.79 702.909C120.79 701.822 120.989 700.889 121.387 700.11C121.785 699.328 122.328 698.728 123.018 698.31C123.707 697.889 124.491 697.679 125.369 697.679C125.91 697.679 126.413 697.757 126.881 697.913C127.351 698.065 127.774 698.29 128.148 698.589C128.523 698.884 128.833 699.245 129.078 699.673C129.323 700.097 129.489 700.582 129.575 701.129ZM133.517 708.169C133.033 708.169 132.595 708.08 132.204 707.901C131.813 707.718 131.503 707.455 131.274 707.11C131.049 706.765 130.936 706.343 130.936 705.842C130.936 705.411 131.019 705.057 131.185 704.778C131.351 704.5 131.574 704.28 131.856 704.117C132.138 703.955 132.453 703.832 132.801 703.749C133.149 703.666 133.503 703.603 133.865 703.56C134.322 703.507 134.693 703.464 134.978 703.431C135.263 703.395 135.47 703.337 135.6 703.257C135.729 703.178 135.794 703.048 135.794 702.869V702.835C135.794 702.4 135.671 702.064 135.426 701.825C135.184 701.587 134.822 701.467 134.342 701.467C133.841 701.467 133.447 701.578 133.159 701.8C132.874 702.019 132.676 702.263 132.567 702.531L131.17 702.213C131.336 701.749 131.578 701.375 131.896 701.089C132.217 700.801 132.587 700.592 133.004 700.463C133.422 700.33 133.861 700.264 134.322 700.264C134.627 700.264 134.95 700.301 135.291 700.374C135.636 700.443 135.958 700.572 136.256 700.761C136.557 700.95 136.804 701.22 136.997 701.572C137.189 701.92 137.285 702.372 137.285 702.929V708H135.833V706.956H135.774C135.677 707.148 135.533 707.337 135.341 707.523C135.149 707.708 134.902 707.862 134.6 707.985C134.299 708.108 133.937 708.169 133.517 708.169ZM133.84 706.976C134.251 706.976 134.602 706.895 134.894 706.732C135.189 706.57 135.412 706.358 135.565 706.096C135.721 705.831 135.798 705.547 135.798 705.246V704.261C135.745 704.314 135.643 704.364 135.49 704.411C135.341 704.454 135.17 704.492 134.978 704.525C134.786 704.555 134.599 704.583 134.416 704.609C134.234 704.633 134.082 704.652 133.959 704.669C133.671 704.705 133.407 704.767 133.169 704.853C132.933 704.939 132.744 705.063 132.602 705.226C132.463 705.385 132.393 705.597 132.393 705.862C132.393 706.23 132.529 706.509 132.801 706.697C133.072 706.883 133.419 706.976 133.84 706.976ZM140.751 703.466V708H139.265V700.364H140.692V701.607H140.786C140.962 701.202 141.237 700.877 141.612 700.632C141.989 700.387 142.465 700.264 143.038 700.264C143.559 700.264 144.014 700.374 144.406 700.592C144.797 700.808 145.1 701.129 145.315 701.557C145.531 701.984 145.638 702.513 145.638 703.143V708H144.152V703.322C144.152 702.768 144.008 702.336 143.719 702.024C143.431 701.709 143.035 701.552 142.531 701.552C142.187 701.552 141.88 701.626 141.612 701.776C141.346 701.925 141.136 702.143 140.98 702.432C140.828 702.717 140.751 703.062 140.751 703.466ZM148.91 697.818V698.773C148.91 699.054 148.857 699.351 148.751 699.663C148.648 699.971 148.502 700.268 148.313 700.553C148.124 700.838 147.902 701.083 147.647 701.288L146.911 700.761C147.107 700.476 147.276 700.173 147.418 699.852C147.564 699.53 147.637 699.175 147.637 698.788V697.818H148.91ZM154.205 700.364V701.557H150.033V700.364H154.205ZM151.152 698.534H152.638V705.758C152.638 706.046 152.682 706.263 152.768 706.409C152.854 706.552 152.965 706.649 153.101 706.702C153.24 706.752 153.391 706.777 153.553 706.777C153.673 706.777 153.777 706.769 153.866 706.752C153.956 706.736 154.026 706.722 154.075 706.712L154.344 707.94C154.258 707.973 154.135 708.007 153.976 708.04C153.817 708.076 153.618 708.096 153.379 708.099C152.988 708.106 152.624 708.036 152.286 707.891C151.947 707.745 151.674 707.519 151.465 707.214C151.256 706.91 151.152 706.527 151.152 706.066V698.534ZM163.188 700.364V701.557H158.873V700.364H163.188ZM160.056 708V699.479C160.056 699.001 160.161 698.605 160.369 698.29C160.578 697.972 160.855 697.735 161.2 697.58C161.544 697.42 161.919 697.341 162.323 697.341C162.621 697.341 162.877 697.366 163.089 697.415C163.301 697.462 163.458 697.505 163.561 697.545L163.213 698.748C163.143 698.728 163.054 698.705 162.945 698.678C162.835 698.648 162.703 698.634 162.547 698.634C162.186 698.634 161.927 698.723 161.771 698.902C161.619 699.081 161.543 699.339 161.543 699.678V708H160.056ZM164.722 708V700.364H166.208V708H164.722ZM165.473 699.185C165.214 699.185 164.992 699.099 164.806 698.927C164.624 698.751 164.533 698.542 164.533 698.3C164.533 698.055 164.624 697.846 164.806 697.674C164.992 697.498 165.214 697.411 165.473 697.411C165.731 697.411 165.952 697.498 166.134 697.674C166.319 697.846 166.412 698.055 166.412 698.3C166.412 698.542 166.319 698.751 166.134 698.927C165.952 699.099 165.731 699.185 165.473 699.185ZM169.695 703.466V708H168.208V700.364H169.635V701.607H169.73C169.905 701.202 170.18 700.877 170.555 700.632C170.933 700.387 171.408 700.264 171.982 700.264C172.502 700.264 172.958 700.374 173.349 700.592C173.74 700.808 174.043 701.129 174.259 701.557C174.474 701.984 174.582 702.513 174.582 703.143V708H173.095V703.322C173.095 702.768 172.951 702.336 172.663 702.024C172.374 701.709 171.978 701.552 171.475 701.552C171.13 701.552 170.823 701.626 170.555 701.776C170.29 701.925 170.079 702.143 169.923 702.432C169.771 702.717 169.695 703.062 169.695 703.466ZM179.434 708.149C178.818 708.149 178.267 707.992 177.784 707.677C177.303 707.359 176.925 706.906 176.65 706.32C176.378 705.73 176.242 705.022 176.242 704.197C176.242 703.371 176.38 702.665 176.655 702.079C176.933 701.492 177.315 701.043 177.798 700.732C178.282 700.42 178.831 700.264 179.444 700.264C179.918 700.264 180.299 700.344 180.588 700.503C180.879 700.659 181.105 700.841 181.264 701.05C181.426 701.259 181.552 701.442 181.642 701.602H181.731V697.818H183.218V708H181.766V706.812H181.642C181.552 706.974 181.423 707.16 181.254 707.369C181.088 707.577 180.859 707.76 180.568 707.915C180.276 708.071 179.898 708.149 179.434 708.149ZM179.762 706.881C180.19 706.881 180.551 706.769 180.846 706.543C181.144 706.315 181.37 705.998 181.522 705.594C181.678 705.189 181.756 704.719 181.756 704.182C181.756 703.652 181.68 703.187 181.527 702.79C181.375 702.392 181.151 702.082 180.856 701.86C180.561 701.638 180.196 701.527 179.762 701.527C179.315 701.527 178.942 701.643 178.644 701.875C178.345 702.107 178.12 702.424 177.968 702.825C177.818 703.226 177.744 703.678 177.744 704.182C177.744 704.692 177.82 705.151 177.972 705.559C178.125 705.967 178.35 706.29 178.649 706.528C178.95 706.764 179.321 706.881 179.762 706.881ZM189.984 710.864C189.762 710.864 189.56 710.845 189.377 710.809C189.195 710.776 189.059 710.739 188.97 710.7L189.328 709.482C189.599 709.554 189.841 709.586 190.053 709.576C190.266 709.566 190.453 709.487 190.615 709.337C190.781 709.188 190.927 708.945 191.053 708.607L191.237 708.099L188.443 700.364H190.034L191.968 706.29H192.047L193.981 700.364H195.577L192.43 709.019C192.284 709.417 192.098 709.753 191.873 710.028C191.648 710.307 191.379 710.516 191.068 710.655C190.756 710.794 190.395 710.864 189.984 710.864ZM199.931 708.154C199.215 708.154 198.59 707.99 198.056 707.662C197.523 707.334 197.109 706.875 196.814 706.285C196.519 705.695 196.371 705.005 196.371 704.217C196.371 703.424 196.519 702.732 196.814 702.138C197.109 701.545 197.523 701.085 198.056 700.756C198.59 700.428 199.215 700.264 199.931 700.264C200.647 700.264 201.271 700.428 201.805 700.756C202.339 701.085 202.753 701.545 203.048 702.138C203.343 702.732 203.49 703.424 203.49 704.217C203.49 705.005 203.343 705.695 203.048 706.285C202.753 706.875 202.339 707.334 201.805 707.662C201.271 707.99 200.647 708.154 199.931 708.154ZM199.936 706.906C200.4 706.906 200.784 706.784 201.089 706.538C201.394 706.293 201.619 705.967 201.765 705.559C201.914 705.151 201.989 704.702 201.989 704.212C201.989 703.724 201.914 703.277 201.765 702.869C201.619 702.458 201.394 702.129 201.089 701.88C200.784 701.631 200.4 701.507 199.936 701.507C199.468 701.507 199.081 701.631 198.772 701.88C198.467 702.129 198.24 702.458 198.091 702.869C197.945 703.277 197.873 703.724 197.873 704.212C197.873 704.702 197.945 705.151 198.091 705.559C198.24 705.967 198.467 706.293 198.772 706.538C199.081 706.784 199.468 706.906 199.936 706.906ZM209.987 704.833V700.364H211.479V708H210.017V706.678H209.937C209.762 707.085 209.48 707.425 209.092 707.697C208.708 707.965 208.229 708.099 207.655 708.099C207.165 708.099 206.731 707.992 206.353 707.776C205.978 707.558 205.683 707.234 205.468 706.807C205.256 706.379 205.15 705.851 205.15 705.221V700.364H206.636V705.042C206.636 705.562 206.78 705.977 207.069 706.285C207.357 706.593 207.732 706.747 208.192 706.747C208.471 706.747 208.747 706.678 209.023 706.538C209.301 706.399 209.531 706.189 209.714 705.907C209.899 705.625 209.99 705.267 209.987 704.833ZM213.476 708V700.364H214.913V701.577H214.992C215.131 701.166 215.377 700.843 215.728 700.607C216.083 700.369 216.484 700.249 216.931 700.249C217.024 700.249 217.133 700.253 217.259 700.259C217.388 700.266 217.49 700.274 217.562 700.284V701.706C217.503 701.689 217.397 701.671 217.244 701.651C217.092 701.628 216.939 701.616 216.787 701.616C216.436 701.616 216.122 701.691 215.847 701.84C215.576 701.986 215.36 702.19 215.201 702.452C215.042 702.71 214.962 703.005 214.962 703.337V708H213.476ZM224.04 697.818V708H222.554V697.818H224.04ZM229.257 708.154C228.541 708.154 227.916 707.99 227.383 707.662C226.849 707.334 226.435 706.875 226.14 706.285C225.845 705.695 225.697 705.005 225.697 704.217C225.697 703.424 225.845 702.732 226.14 702.138C226.435 701.545 226.849 701.085 227.383 700.756C227.916 700.428 228.541 700.264 229.257 700.264C229.973 700.264 230.598 700.428 231.131 700.756C231.665 701.085 232.079 701.545 232.374 702.138C232.669 702.732 232.817 703.424 232.817 704.217C232.817 705.005 232.669 705.695 232.374 706.285C232.079 706.875 231.665 707.334 231.131 707.662C230.598 707.99 229.973 708.154 229.257 708.154ZM229.262 706.906C229.726 706.906 230.11 706.784 230.415 706.538C230.72 706.293 230.946 705.967 231.091 705.559C231.241 705.151 231.315 704.702 231.315 704.212C231.315 703.724 231.241 703.277 231.091 702.869C230.946 702.458 230.72 702.129 230.415 701.88C230.11 701.631 229.726 701.507 229.262 701.507C228.795 701.507 228.407 701.631 228.099 701.88C227.794 702.129 227.567 702.458 227.417 702.869C227.272 703.277 227.199 703.724 227.199 704.212C227.199 704.702 227.272 705.151 227.417 705.559C227.567 705.967 227.794 706.293 228.099 706.538C228.407 706.784 228.795 706.906 229.262 706.906ZM237.692 708.154C236.953 708.154 236.317 707.987 235.783 707.652C235.253 707.314 234.845 706.848 234.56 706.255C234.275 705.662 234.133 704.982 234.133 704.217C234.133 703.441 234.279 702.757 234.57 702.163C234.862 701.567 235.273 701.101 235.803 700.766C236.334 700.432 236.958 700.264 237.678 700.264C238.258 700.264 238.775 700.372 239.229 700.587C239.683 700.799 240.049 701.098 240.327 701.482C240.609 701.867 240.777 702.316 240.83 702.83H239.383C239.303 702.472 239.121 702.163 238.836 701.905C238.554 701.646 238.176 701.517 237.702 701.517C237.288 701.517 236.925 701.626 236.614 701.845C236.305 702.061 236.065 702.369 235.893 702.77C235.72 703.168 235.634 703.638 235.634 704.182C235.634 704.739 235.719 705.219 235.888 705.624C236.057 706.028 236.295 706.341 236.604 706.563C236.915 706.785 237.281 706.896 237.702 706.896C237.984 706.896 238.239 706.845 238.468 706.742C238.7 706.636 238.894 706.485 239.05 706.29C239.209 706.094 239.32 705.859 239.383 705.584H240.83C240.777 706.078 240.616 706.518 240.347 706.906C240.079 707.294 239.719 707.599 239.268 707.821C238.821 708.043 238.296 708.154 237.692 708.154ZM244.642 708.169C244.158 708.169 243.72 708.08 243.329 707.901C242.938 707.718 242.628 707.455 242.399 707.11C242.174 706.765 242.061 706.343 242.061 705.842C242.061 705.411 242.144 705.057 242.31 704.778C242.476 704.5 242.699 704.28 242.981 704.117C243.263 703.955 243.578 703.832 243.926 703.749C244.274 703.666 244.628 703.603 244.99 703.56C245.447 703.507 245.818 703.464 246.103 703.431C246.388 703.395 246.595 703.337 246.725 703.257C246.854 703.178 246.919 703.048 246.919 702.869V702.835C246.919 702.4 246.796 702.064 246.551 701.825C246.309 701.587 245.947 701.467 245.467 701.467C244.966 701.467 244.572 701.578 244.284 701.8C243.999 702.019 243.801 702.263 243.692 702.531L242.295 702.213C242.461 701.749 242.703 701.375 243.021 701.089C243.342 700.801 243.712 700.592 244.129 700.463C244.547 700.33 244.986 700.264 245.447 700.264C245.752 700.264 246.075 700.301 246.416 700.374C246.761 700.443 247.083 700.572 247.381 700.761C247.682 700.95 247.929 701.22 248.122 701.572C248.314 701.92 248.41 702.372 248.41 702.929V708H246.958V706.956H246.899C246.802 707.148 246.658 707.337 246.466 707.523C246.274 707.708 246.027 707.862 245.725 707.985C245.424 708.108 245.062 708.169 244.642 708.169ZM244.965 706.976C245.376 706.976 245.727 706.895 246.019 706.732C246.314 706.57 246.537 706.358 246.69 706.096C246.846 705.831 246.923 705.547 246.923 705.246V704.261C246.87 704.314 246.768 704.364 246.615 704.411C246.466 704.454 246.295 704.492 246.103 704.525C245.911 704.555 245.724 704.583 245.541 704.609C245.359 704.633 245.207 704.652 245.084 704.669C244.796 704.705 244.532 704.767 244.294 704.853C244.058 704.939 243.869 705.063 243.727 705.226C243.588 705.385 243.518 705.597 243.518 705.862C243.518 706.23 243.654 706.509 243.926 706.697C244.197 706.883 244.544 706.976 244.965 706.976ZM253.955 700.364V701.557H249.783V700.364H253.955ZM250.902 698.534H252.388V705.758C252.388 706.046 252.432 706.263 252.518 706.409C252.604 706.552 252.715 706.649 252.851 706.702C252.99 706.752 253.141 706.777 253.303 706.777C253.423 706.777 253.527 706.769 253.616 706.752C253.706 706.736 253.776 706.722 253.825 706.712L254.094 707.94C254.008 707.973 253.885 708.007 253.726 708.04C253.567 708.076 253.368 708.096 253.129 708.099C252.738 708.106 252.374 708.036 252.036 707.891C251.697 707.745 251.424 707.519 251.215 707.214C251.006 706.91 250.902 706.527 250.902 706.066V698.534ZM255.599 708V700.364H257.085V708H255.599ZM256.35 699.185C256.091 699.185 255.869 699.099 255.683 698.927C255.501 698.751 255.41 698.542 255.41 698.3C255.41 698.055 255.501 697.846 255.683 697.674C255.869 697.498 256.091 697.411 256.35 697.411C256.608 697.411 256.829 697.498 257.011 697.674C257.196 697.846 257.289 698.055 257.289 698.3C257.289 698.542 257.196 698.751 257.011 698.927C256.829 699.099 256.608 699.185 256.35 699.185ZM262.302 708.154C261.586 708.154 260.961 707.99 260.428 707.662C259.894 707.334 259.48 706.875 259.185 706.285C258.89 705.695 258.742 705.005 258.742 704.217C258.742 703.424 258.89 702.732 259.185 702.138C259.48 701.545 259.894 701.085 260.428 700.756C260.961 700.428 261.586 700.264 262.302 700.264C263.018 700.264 263.643 700.428 264.176 700.756C264.71 701.085 265.124 701.545 265.419 702.138C265.714 702.732 265.862 703.424 265.862 704.217C265.862 705.005 265.714 705.695 265.419 706.285C265.124 706.875 264.71 707.334 264.176 707.662C263.643 707.99 263.018 708.154 262.302 708.154ZM262.307 706.906C262.771 706.906 263.155 706.784 263.46 706.538C263.765 706.293 263.991 705.967 264.136 705.559C264.286 705.151 264.36 704.702 264.36 704.212C264.36 703.724 264.286 703.277 264.136 702.869C263.991 702.458 263.765 702.129 263.46 701.88C263.155 701.631 262.771 701.507 262.307 701.507C261.839 701.507 261.452 701.631 261.143 701.88C260.839 702.129 260.612 702.458 260.462 702.869C260.317 703.277 260.244 703.724 260.244 704.212C260.244 704.702 260.317 705.151 260.462 705.559C260.612 705.967 260.839 706.293 261.143 706.538C261.452 706.784 261.839 706.906 262.307 706.906ZM269.007 703.466V708H267.521V700.364H268.948V701.607H269.042C269.218 701.202 269.493 700.877 269.867 700.632C270.245 700.387 270.721 700.264 271.294 700.264C271.815 700.264 272.27 700.374 272.661 700.592C273.052 700.808 273.356 701.129 273.571 701.557C273.787 701.984 273.894 702.513 273.894 703.143V708H272.408V703.322C272.408 702.768 272.264 702.336 271.975 702.024C271.687 701.709 271.291 701.552 270.787 701.552C270.442 701.552 270.136 701.626 269.867 701.776C269.602 701.925 269.392 702.143 269.236 702.432C269.084 702.717 269.007 703.062 269.007 703.466ZM277.514 705.072V704.977C277.52 704.361 277.582 703.87 277.698 703.506C277.817 703.141 277.986 702.846 278.205 702.621C278.423 702.395 278.687 702.19 278.995 702.004C279.194 701.878 279.373 701.737 279.532 701.582C279.691 701.426 279.817 701.247 279.91 701.045C280.003 700.843 280.049 700.619 280.049 700.374C280.049 700.079 279.98 699.823 279.84 699.608C279.701 699.393 279.516 699.227 279.284 699.111C279.055 698.991 278.8 698.932 278.518 698.932C278.263 698.932 278.019 698.985 277.787 699.091C277.555 699.197 277.363 699.363 277.21 699.588C277.058 699.81 276.97 700.097 276.947 700.448H275.436C275.459 699.852 275.61 699.348 275.888 698.937C276.166 698.522 276.534 698.209 276.992 697.997C277.452 697.785 277.961 697.679 278.518 697.679C279.128 697.679 279.661 697.793 280.119 698.022C280.576 698.247 280.931 698.564 281.183 698.972C281.438 699.376 281.566 699.848 281.566 700.388C281.566 700.76 281.508 701.094 281.392 701.393C281.276 701.688 281.11 701.951 280.894 702.183C280.682 702.415 280.427 702.621 280.129 702.8C279.847 702.975 279.618 703.158 279.443 703.347C279.27 703.536 279.144 703.759 279.065 704.018C278.985 704.276 278.942 704.596 278.936 704.977V705.072H277.514ZM278.264 708.094C277.993 708.094 277.759 707.998 277.563 707.806C277.368 707.611 277.27 707.375 277.27 707.1C277.27 706.828 277.368 706.596 277.563 706.404C277.759 706.209 277.993 706.111 278.264 706.111C278.533 706.111 278.765 706.209 278.96 706.404C279.159 706.596 279.259 706.828 279.259 707.1C279.259 707.282 279.212 707.45 279.119 707.602C279.03 707.751 278.911 707.871 278.762 707.96C278.612 708.05 278.447 708.094 278.264 708.094Z" fill="#020D1C"/>
<path d="M295.818 701.383H293.64C293.6 701.101 293.519 700.851 293.397 700.632C293.274 700.41 293.117 700.221 292.924 700.065C292.732 699.91 292.51 699.79 292.258 699.707C292.01 699.625 291.739 699.583 291.448 699.583C290.921 699.583 290.462 699.714 290.071 699.976C289.68 700.234 289.376 700.612 289.161 701.109C288.945 701.603 288.838 702.203 288.838 702.909C288.838 703.635 288.945 704.245 289.161 704.739C289.38 705.232 289.685 705.605 290.076 705.857C290.467 706.109 290.919 706.235 291.433 706.235C291.721 706.235 291.988 706.197 292.233 706.121C292.482 706.045 292.702 705.933 292.895 705.788C293.087 705.638 293.246 705.458 293.372 705.246C293.501 705.034 293.591 704.792 293.64 704.52L295.818 704.53C295.761 704.997 295.621 705.448 295.395 705.882C295.173 706.313 294.873 706.699 294.495 707.04C294.121 707.379 293.673 707.647 293.153 707.846C292.636 708.041 292.051 708.139 291.398 708.139C290.49 708.139 289.678 707.934 288.962 707.523C288.249 707.112 287.686 706.517 287.272 705.738C286.861 704.959 286.655 704.016 286.655 702.909C286.655 701.799 286.864 700.854 287.282 700.075C287.699 699.296 288.266 698.703 288.982 698.295C289.698 697.884 290.503 697.679 291.398 697.679C291.988 697.679 292.535 697.762 293.039 697.928C293.546 698.093 293.995 698.335 294.386 698.653C294.777 698.968 295.095 699.354 295.341 699.812C295.589 700.269 295.748 700.793 295.818 701.383ZM299.44 697.818V708H297.322V697.818H299.44ZM301.136 708V700.364H303.254V708H301.136ZM302.2 699.379C301.885 699.379 301.615 699.275 301.39 699.066C301.168 698.854 301.057 698.6 301.057 698.305C301.057 698.014 301.168 697.763 301.39 697.555C301.615 697.343 301.885 697.237 302.2 697.237C302.515 697.237 302.783 697.343 303.006 697.555C303.231 697.763 303.344 698.014 303.344 698.305C303.344 698.6 303.231 698.854 303.006 699.066C302.783 699.275 302.515 699.379 302.2 699.379ZM308.401 708.149C307.619 708.149 306.946 707.983 306.382 707.652C305.822 707.317 305.391 706.853 305.09 706.26C304.792 705.667 304.642 704.984 304.642 704.212C304.642 703.429 304.793 702.743 305.095 702.153C305.4 701.56 305.832 701.098 306.392 700.766C306.953 700.432 307.619 700.264 308.391 700.264C309.057 700.264 309.641 700.385 310.141 700.627C310.641 700.869 311.038 701.209 311.329 701.646C311.621 702.084 311.782 702.598 311.811 703.188H309.813C309.757 702.806 309.607 702.5 309.365 702.268C309.127 702.032 308.814 701.915 308.426 701.915C308.098 701.915 307.811 702.004 307.566 702.183C307.324 702.359 307.135 702.616 306.999 702.954C306.863 703.292 306.795 703.701 306.795 704.182C306.795 704.669 306.861 705.083 306.994 705.425C307.13 705.766 307.32 706.026 307.566 706.205C307.811 706.384 308.098 706.474 308.426 706.474C308.668 706.474 308.885 706.424 309.077 706.325C309.273 706.225 309.433 706.081 309.559 705.892C309.689 705.7 309.773 705.469 309.813 705.201H311.811C311.778 705.784 311.619 706.298 311.334 706.742C311.052 707.183 310.663 707.528 310.166 707.776C309.669 708.025 309.08 708.149 308.401 708.149ZM315.086 705.803L315.091 703.262H315.4L317.846 700.364H320.277L316.991 704.202H316.488L315.086 705.803ZM313.167 708V697.818H315.285V708H313.167ZM317.94 708L315.693 704.674L317.105 703.178L320.421 708H317.94ZM326.674 703.585V708H324.556V697.818H326.614V701.711H326.704C326.876 701.26 327.155 700.907 327.539 700.652C327.924 700.393 328.406 700.264 328.986 700.264C329.516 700.264 329.978 700.38 330.373 700.612C330.771 700.841 331.079 701.171 331.298 701.602C331.52 702.029 331.629 702.541 331.626 703.138V708H329.508V703.516C329.511 703.045 329.392 702.679 329.15 702.417C328.911 702.155 328.576 702.024 328.146 702.024C327.857 702.024 327.602 702.085 327.38 702.208C327.161 702.331 326.989 702.51 326.863 702.745C326.74 702.977 326.677 703.257 326.674 703.585ZM336.773 708.149C335.987 708.149 335.311 707.99 334.744 707.672C334.181 707.35 333.747 706.896 333.442 706.31C333.137 705.72 332.984 705.022 332.984 704.217C332.984 703.431 333.137 702.742 333.442 702.148C333.747 701.555 334.176 701.093 334.729 700.761C335.286 700.43 335.939 700.264 336.688 700.264C337.192 700.264 337.661 700.345 338.095 700.508C338.532 700.667 338.914 700.907 339.238 701.229C339.567 701.55 339.822 701.955 340.004 702.442C340.186 702.926 340.278 703.492 340.278 704.142V704.724H333.829V703.411H338.284C338.284 703.106 338.218 702.836 338.085 702.601C337.952 702.366 337.769 702.182 337.533 702.049C337.301 701.913 337.031 701.845 336.723 701.845C336.401 701.845 336.116 701.92 335.868 702.069C335.622 702.215 335.43 702.412 335.291 702.661C335.152 702.906 335.081 703.179 335.077 703.481V704.729C335.077 705.107 335.147 705.433 335.286 705.708C335.429 705.983 335.629 706.195 335.888 706.344C336.146 706.494 336.453 706.568 336.807 706.568C337.043 706.568 337.258 706.535 337.454 706.469C337.649 706.402 337.817 706.303 337.956 706.17C338.095 706.038 338.201 705.875 338.274 705.683L340.233 705.812C340.133 706.283 339.93 706.694 339.621 707.045C339.316 707.393 338.922 707.665 338.438 707.861C337.957 708.053 337.402 708.149 336.773 708.149ZM341.66 708V700.364H343.713V701.696H343.792C343.932 701.222 344.165 700.864 344.493 700.622C344.822 700.377 345.199 700.254 345.627 700.254C345.733 700.254 345.847 700.261 345.97 700.274C346.093 700.287 346.2 700.306 346.293 700.329V702.208C346.194 702.178 346.056 702.152 345.881 702.129C345.705 702.105 345.544 702.094 345.398 702.094C345.087 702.094 344.808 702.162 344.563 702.298C344.321 702.43 344.129 702.616 343.986 702.854C343.847 703.093 343.778 703.368 343.778 703.68V708H341.66ZM350.513 708.149C349.727 708.149 349.051 707.99 348.484 707.672C347.921 707.35 347.487 706.896 347.182 706.31C346.877 705.72 346.724 705.022 346.724 704.217C346.724 703.431 346.877 702.742 347.182 702.148C347.487 701.555 347.916 701.093 348.469 700.761C349.026 700.43 349.679 700.264 350.428 700.264C350.932 700.264 351.401 700.345 351.835 700.508C352.273 700.667 352.654 700.907 352.979 701.229C353.307 701.55 353.562 701.955 353.744 702.442C353.927 702.926 354.018 703.492 354.018 704.142V704.724H347.57V703.411H352.024C352.024 703.106 351.958 702.836 351.825 702.601C351.693 702.366 351.509 702.182 351.273 702.049C351.041 701.913 350.771 701.845 350.463 701.845C350.142 701.845 349.857 701.92 349.608 702.069C349.363 702.215 349.17 702.412 349.031 702.661C348.892 702.906 348.821 703.179 348.817 703.481V704.729C348.817 705.107 348.887 705.433 349.026 705.708C349.169 705.983 349.369 706.195 349.628 706.344C349.886 706.494 350.193 706.568 350.548 706.568C350.783 706.568 350.998 706.535 351.194 706.469C351.389 706.402 351.557 706.303 351.696 706.17C351.835 706.038 351.941 705.875 352.014 705.683L353.973 705.812C353.874 706.283 353.67 706.694 353.362 707.045C353.057 707.393 352.662 707.665 352.178 707.861C351.698 708.053 351.143 708.149 350.513 708.149Z" fill="#17499F"/>
<defs>
<filter id="filter0_d_803_1905" x="780.938" y="663.16" width="148" height="96.8804" filterUnits="userSpaceOnUse" color-interpolation-filters="sRGB">
<feFlood flood-opacity="0" result="BackgroundImageFix"/>
<feColorMatrix in="SourceAlpha" type="matrix" values="0 0 0 0 0 0 0 0 0 0 0 0 0 0 0 0 0 0 127 0" result="hardAlpha"/>
<feOffset dy="1"/>
<feGaussianBlur stdDeviation="2"/>
<feComposite in2="hardAlpha" operator="out"/>
<feColorMatrix type="matrix" values="0 0 0 0 0 0 0 0 0 0 0 0 0 0 0 0 0 0 0.5 0"/>
<feBlend mode="normal" in2="BackgroundImageFix" result="effect1_dropShadow_803_1905"/>
<feBlend mode="normal" in="SourceGraphic" in2="effect1_dropShadow_803_1905" result="shape"/>
</filter>
<linearGradient id="paint0_linear_803_1905" x1="1066.5" y1="345" x2="1070.5" y2="454" gradientUnits="userSpaceOnUse">
<stop offset="0.383602" stop-color="#36889F" stop-opacity="0"/>
<stop offset="1" stop-color="#36889F"/>
</linearGradient>
<linearGradient id="paint1_linear_803_1905" x1="941.205" y1="379.257" x2="943.896" y2="454.004" gradientUnits="userSpaceOnUse">
<stop offset="0.383602" stop-color="#36889F" stop-opacity="0"/>
<stop offset="1" stop-color="#36889F"/>
</linearGradient>
<linearGradient id="paint2_linear_803_1905" x1="860.205" y1="376.757" x2="862.897" y2="451.504" gradientUnits="userSpaceOnUse">
<stop offset="0.62114" stop-color="#36889F" stop-opacity="0"/>
<stop offset="1" stop-color="#36889F"/>
</linearGradient>
</defs>
</svg>
