<svg xmlns="http://www.w3.org/2000/svg" width="56" height="56" viewBox="0 0 56 56" fill="none">
  <g clip-path="url(#clip0_151_2573)">
    <path d="M28 4.48C15.0105 4.48 4.47998 15.0106 4.47998 28.0003C4.47998 40.9896 15.0104 51.52 28 51.52C40.9896 51.52 51.52 40.9896 51.52 28.0003C51.52 15.0106 40.9894 4.48 28 4.48Z" fill="#EDF3FC"/>
    <path d="M27.9999 0C12.5606 0 0 12.5607 0 28.0002C0 43.4394 12.5606 56 27.9999 56C43.4392 56 56 43.4394 56 28.0002C56 12.5607 43.4392 0 27.9999 0ZM27.9999 55.1031C13.0552 55.1031 0.896988 42.9448 0.896988 28.0002C0.896988 13.0555 13.0552 0.896988 27.9999 0.896988C42.9444 0.896988 55.103 13.0555 55.103 28.0002C55.103 42.9448 42.9444 55.1031 27.9999 55.1031Z" fill="#EDF3FC"/>
    <path d="M33.46 33.46H15.4V35.1467C15.4 35.3748 15.5852 35.56 15.8133 35.56H33.46V33.46Z" fill="#EDD4C2"/>
    <path d="M31.78 33.46H15.4C14.9359 33.46 14.56 33.0841 14.56 32.62V20.86C14.56 20.3959 14.9359 20.02 15.4 20.02H29.68C30.8396 20.02 31.78 20.9604 31.78 22.12V33.46Z" fill="#17499F"/>
    <path d="M29.68 20.02H15.4C14.9359 20.02 14.56 20.3959 14.56 20.86V21.28C14.56 20.8159 14.9359 20.44 15.4 20.44H29.68C30.8396 20.44 31.78 21.3804 31.78 22.54V22.12C31.78 20.9604 30.8396 20.02 29.68 20.02Z" fill="#FFF7F2"/>
    <path d="M31.78 33.46H33.4612C34.856 33.46 35.9854 34.5932 35.9812 35.9876L35.98 36.4H39.76C40.4559 36.4 41.02 35.8359 41.02 35.14V28.5174L39.5869 23.06C39.4412 22.506 38.9405 22.12 38.3681 22.12H31.78V33.46Z" fill="#5D8EF9"/>
    <path d="M39.442 22.7273C39.2177 22.3586 38.8166 22.12 38.3681 22.12H31.78V22.54H38.7881C39.0258 22.54 39.2492 22.6097 39.442 22.7273Z" fill="#FFA171"/>
    <path d="M33.46 38.5C34.8518 38.5 35.98 37.3718 35.98 35.98C35.98 34.5882 34.8518 33.46 33.46 33.46C32.0682 33.46 30.94 34.5882 30.94 35.98C30.94 37.3718 32.0682 38.5 33.46 38.5Z" fill="#6770E6"/>
    <path d="M33.46 37.24C34.1559 37.24 34.72 36.6759 34.72 35.98C34.72 35.2841 34.1559 34.72 33.46 34.72C32.7641 34.72 32.2 35.2841 32.2 35.98C32.2 36.6759 32.7641 37.24 33.46 37.24Z" fill="#5861C7"/>
    <path d="M18.34 38.5C19.7318 38.5 20.86 37.3718 20.86 35.98C20.86 34.5882 19.7318 33.46 18.34 33.46C16.9482 33.46 15.82 34.5882 15.82 35.98C15.82 37.3718 16.9482 38.5 18.34 38.5Z" fill="#6770E6"/>
    <path d="M18.34 37.24C19.0359 37.24 19.6 36.6759 19.6 35.98C19.6 35.2841 19.0359 34.72 18.34 34.72C17.6441 34.72 17.08 35.2841 17.08 35.98C17.08 36.6759 17.6441 37.24 18.34 37.24Z" fill="#5861C7"/>
    <path d="M41.02 33.46H38.5C38.2682 33.46 38.08 33.6482 38.08 33.88V35.14C38.08 35.3718 38.2682 35.56 38.5 35.56H41.02C41.2519 35.56 41.44 35.3718 41.44 35.14V33.88C41.44 33.6482 41.2519 33.46 41.02 33.46Z" fill="#E0734A"/>
    <path d="M33.46 24.22V27.874C33.46 28.2058 33.6553 28.5069 33.959 28.6418L36.996 29.9916C37.1569 30.063 37.3312 30.1 37.5076 30.1H41.02V28.5174L39.671 23.38H34.3C33.8359 23.38 33.46 23.7559 33.46 24.22Z" fill="#69EBFC"/>
    <path d="M40.6 33.04H41.02V30.94H40.6C40.1359 30.94 39.76 31.3159 39.76 31.78V32.2C39.76 32.6641 40.1359 33.04 40.6 33.04Z" fill="#D476E2"/>
    <path d="M41.44 38.5H14.56V41.44H41.44V38.5Z" fill="#D476E2"/>
    <path d="M41.44 40.6H14.56V41.44H41.44V40.6Z" fill="#B665C2"/>
    <path d="M24.22 20.86H15.19C14.8422 20.86 14.56 20.5778 14.56 20.23C14.56 19.8822 14.8422 19.6 15.19 19.6H24.22V20.86Z" fill="#FF8354"/>
    <path d="M24.64 23.38H17.29C16.9422 23.38 16.66 23.0978 16.66 22.75C16.66 22.4022 16.9422 22.12 17.29 22.12H24.64V23.38Z" fill="#FF8354"/>
    <path d="M24.22 25.9H15.19C14.8422 25.9 14.56 25.6178 14.56 25.27C14.56 24.9222 14.8422 24.64 15.19 24.64H24.22V25.9Z" fill="#FF8354"/>
    <path d="M24.22 18.34H16.03C15.6823 18.34 15.4 18.0578 15.4 17.71C15.4 17.3622 15.6823 17.08 16.03 17.08H24.22V18.34Z" fill="#FF8354"/>
    <path d="M24.01 25.9C27.1415 25.9 29.68 23.3615 29.68 20.23C29.68 17.0985 27.1415 14.56 24.01 14.56C20.8786 14.56 18.34 17.0985 18.34 20.23C18.34 23.3615 20.8786 25.9 24.01 25.9Z" fill="#FF8354"/>
    <path d="M24.01 24.5917C26.4189 24.5917 28.3717 22.6389 28.3717 20.23C28.3717 17.8211 26.4189 15.8683 24.01 15.8683C21.6011 15.8683 19.6483 17.8211 19.6483 20.23C19.6483 22.6389 21.6011 24.5917 24.01 24.5917Z" fill="#FFEFE4"/>
    <path d="M27.16 20.44H24.22C23.9881 20.44 23.8 20.2518 23.8 20.02V17.08C23.8 16.8482 23.9881 16.66 24.22 16.66C24.4518 16.66 24.64 16.8482 24.64 17.08V19.6H27.16C27.3918 19.6 27.58 19.7882 27.58 20.02C27.58 20.2518 27.3918 20.44 27.16 20.44Z" fill="#FF8354"/>
    <path d="M24.22 15.82H17.29C16.9422 15.82 16.66 15.5378 16.66 15.19C16.66 14.8422 16.9422 14.56 17.29 14.56H24.22V15.82Z" fill="#FF8354"/>
    <path d="M17.29 14.98H24.22V14.9905C27.1822 15.0993 29.5594 17.4761 29.6695 20.4375C29.672 20.3682 29.68 20.3001 29.68 20.23C29.68 17.1695 27.2532 14.6818 24.22 14.5705V14.56H17.29C16.9422 14.56 16.66 14.8422 16.66 15.19C16.66 15.2639 16.6751 15.3341 16.6986 15.4C16.7851 15.156 17.0161 14.98 17.29 14.98Z" fill="#FFA171"/>
    <path d="M18.97 15.82C19.3177 15.82 19.6 16.1022 19.6 16.45C19.6 16.7978 19.3177 17.08 18.97 17.08H20.44V15.82H18.97Z" fill="#FF8354"/>
    <path d="M17.71 18.34C18.0578 18.34 18.34 18.6222 18.34 18.97C18.34 19.3178 18.0578 19.6 17.71 19.6H19.18V18.34H17.71Z" fill="#FF8354"/>
    <path d="M17.71 20.86C18.0578 20.86 18.34 21.1422 18.34 21.49C18.34 21.8378 18.0578 22.12 17.71 22.12H19.18V20.86H17.71Z" fill="#FF8354"/>
    <path d="M18.97 23.38C19.3177 23.38 19.6 23.6622 19.6 24.01C19.6 24.3578 19.3177 24.64 18.97 24.64H20.44V23.38H18.97Z" fill="#FF8354"/>
  </g>
  <defs>
    <clipPath id="clip0_151_2573">
      <rect width="56" height="56" fill="white"/>
    </clipPath>
  </defs>
</svg>