<svg xmlns="http://www.w3.org/2000/svg" width="56" height="56" viewBox="0 0 56 56" fill="none">
  <g clip-path="url(#clip0_151_2545)">
    <path d="M27.9998 4.4765C15.0085 4.4765 4.47644 15.0087 4.47644 28.0002C4.47644 40.9913 15.0084 51.5233 27.9998 51.5233C40.9913 51.5233 51.5232 40.9913 51.5232 28.0002C51.5232 15.0087 40.9912 4.4765 27.9998 4.4765Z" fill="#EDF3FC"/>
    <path d="M27.9999 0.109375C12.6209 0.109375 0.109375 12.621 0.109375 28.0002C0.109375 43.3791 12.6209 55.8906 27.9999 55.8906C43.3789 55.8906 55.8906 43.3791 55.8906 28.0002C55.8906 12.621 43.3789 0.109375 27.9999 0.109375ZM27.9999 54.9972C13.1136 54.9972 1.00286 42.8864 1.00286 28.0002C1.00286 13.1138 13.1136 1.00286 27.9999 1.00286C42.886 1.00286 54.9971 13.1138 54.9971 28.0002C54.9971 42.8864 42.886 54.9972 27.9999 54.9972Z" fill="#EDF3FC"/>
    <path d="M39.9461 41.2973H16.0539C14.6933 41.2973 13.5906 40.1944 13.5906 38.8335V19.6232C13.5906 18.2635 14.6933 17.1603 16.0539 17.1603H39.9461C41.3065 17.1603 42.4094 18.2634 42.4094 19.6232V38.8335C42.4094 40.1944 41.3066 41.2973 39.9461 41.2973Z" fill="#5D8EF9"/>
    <path d="M26.9042 25.1248H23.3527V28.6763H26.9042V25.1248Z" fill="white"/>
    <path d="M32.6473 25.1248H29.0958V28.6763H32.6473V25.1248Z" fill="#FFBE1B"/>
    <path d="M38.3906 25.1248H34.8391V28.6763H38.3906V25.1248Z" fill="white"/>
    <path d="M21.1609 30.2988H17.6094V33.8504H21.1609V30.2988Z" fill="white"/>
    <path d="M26.9042 30.2988H23.3527V33.8504H26.9042V30.2988Z" fill="white"/>
    <path d="M32.6473 30.2988H29.0958V33.8504H32.6473V30.2988Z" fill="white"/>
    <path d="M38.3906 30.2988H34.8391V33.8504H38.3906V30.2988Z" fill="white"/>
    <path d="M21.1609 35.473H17.6094V39.0246H21.1609V35.473Z" fill="#FFBE1B"/>
    <path d="M26.9042 35.473H23.3527V39.0246H26.9042V35.473Z" fill="#FFBE1B"/>
    <path d="M32.6473 35.473H29.0958V39.0246H32.6473V35.473Z" fill="white"/>
    <path d="M38.3906 35.473H34.8391V39.0246H38.3906V35.473Z" fill="white"/>
    <path d="M42.4094 23.2322V19.6232C42.4094 18.2635 41.3066 17.1603 39.9461 17.1603H16.0539C14.6933 17.1603 13.5906 18.2634 13.5906 19.6232V23.2322H42.4094Z" fill="#17499F"/>
    <path d="M20.0727 19.6179C19.378 19.6179 18.8147 19.0547 18.8147 18.3599V16.2097C18.8147 15.5148 19.378 14.9517 20.0727 14.9517C20.7676 14.9517 21.3308 15.515 21.3308 16.2097V18.3599C21.3308 19.0547 20.7675 19.6179 20.0727 19.6179Z" fill="#5D8EF9"/>
    <path d="M28 19.4935C27.3051 19.4935 26.7419 18.9302 26.7419 18.2354V16.0852C26.7419 15.3904 27.3052 14.8272 28 14.8272C28.6948 14.8272 29.258 15.3905 29.258 16.0852V18.2354C29.258 18.9302 28.6948 19.4935 28 19.4935Z" fill="#5D8EF9"/>
    <path d="M35.9272 19.369C35.2324 19.369 34.6692 18.8057 34.6692 18.111V15.9608C34.6692 15.266 35.2325 14.7027 35.9272 14.7027C36.622 14.7027 37.1853 15.266 37.1853 15.9608V18.111C37.1853 18.8057 36.6221 19.369 35.9272 19.369Z" fill="#5D8EF9"/>
    <path d="M17.8774 12.9742L18.0065 13.0065L17.8774 13.0389C17.1218 13.2282 16.532 13.8182 16.3427 14.5739L16.3102 14.7028L16.2778 14.5739C16.0885 13.8182 15.4987 13.2282 14.7428 13.0389L14.6141 13.0065L14.7428 12.9742C15.4987 12.7848 16.0885 12.1948 16.2778 11.4394L16.3102 11.3106L16.3427 11.4394C16.532 12.1947 17.1218 12.7848 17.8774 12.9742Z" fill="#330D84"/>
    <path d="M26.0044 10.1899L26.2639 10.2549L26.0044 10.3199C24.485 10.7006 23.2991 11.8868 22.9185 13.4062L22.8532 13.6654L22.7881 13.4062C22.4075 11.8868 21.2214 10.7005 19.7016 10.3199L19.443 10.2549L19.7016 10.1899C21.2214 9.80919 22.4076 8.62269 22.7881 7.10402L22.8532 6.84502L22.9185 7.10402C23.2991 8.62269 24.485 9.80919 26.0044 10.1899Z" fill="#330D84"/>
    <path d="M35.7002 45.6921L35.9273 45.7489L35.7002 45.8058C34.3705 46.139 33.3328 47.177 32.9997 48.5068L32.9425 48.7337L32.8856 48.5068C32.5525 47.1772 31.5144 46.139 30.1844 45.8058L29.9581 45.7489L30.1844 45.6921C31.5145 45.3589 32.5525 44.3205 32.8856 42.9916L32.9425 42.765L32.9997 42.9916C33.3328 44.3205 34.3705 45.3588 35.7002 45.6921Z" fill="#FFBE1B"/>
    <path d="M49.2953 27.2861L49.5 27.3374L49.2953 27.3887C48.0972 27.6889 47.1622 28.6243 46.8621 29.8224L46.8106 30.0268L46.7593 29.8224C46.4591 28.6243 45.5239 27.6888 44.3253 27.3887L44.1215 27.3374L44.3253 27.2861C45.5239 26.9859 46.4591 26.0503 46.7593 24.8528L46.8106 24.6486L46.8621 24.8528C47.1622 26.0502 48.0972 26.9859 49.2953 27.2861Z" fill="#5D8EF9"/>
  </g>
  <defs>
    <clipPath id="clip0_151_2545">
      <rect width="56" height="56" fill="white"/>
    </clipPath>
  </defs>
</svg>