<svg width="120" height="120" viewBox="0 0 120 120" fill="none" xmlns="http://www.w3.org/2000/svg">
<g clip-path="url(#clip0_1206_1567)">
<path d="M95 20H90V15C90 12.25 87.75 10 85 10C82.25 10 80 12.25 80 15V20H40V15C40 12.25 37.75 10 35 10C32.25 10 30 12.25 30 15V20H25C19.45 20 15.05 24.5 15.05 30L15 100C15 105.5 19.45 110 25 110H95C100.5 110 105 105.5 105 100V30C105 24.5 100.5 20 95 20ZM95 95C95 97.75 92.75 100 90 100H30C27.25 100 25 97.75 25 95V45H95V95ZM35 55H45V65H35V55ZM55 55H65V65H55V55ZM75 55H85V65H75V55Z" fill="#323232"/>
</g>
<defs>
<clipPath id="clip0_1206_1567">
<rect width="120" height="120" fill="white"/>
</clipPath>
</defs>
</svg>
