<svg width="259" height="381" viewBox="0 0 259 381" fill="none" xmlns="http://www.w3.org/2000/svg">
<path d="M413.717 348.538L149.967 419.21C134.947 423.234 119.512 414.322 115.486 399.298L58.6634 187.233C54.6417 172.223 63.5514 156.783 78.5715 152.758L342.321 82.0864C357.339 78.0624 372.776 86.9782 376.798 101.989L433.621 314.054C437.647 329.078 428.736 344.514 413.717 348.538Z" fill="#FFD59A"/>
<path d="M189.116 339.809L149.91 350.315L160.415 389.52L199.621 379.015L189.116 339.809Z" fill="#FCF9DE"/>
<path d="M252.517 322.821L213.311 333.326L223.816 372.532L263.022 362.027L252.517 322.821Z" fill="#FCF9DE"/>
<path d="M387.474 141.83L376.798 101.989C372.777 86.9794 357.34 78.0621 342.321 82.0864L78.5715 152.758C63.5514 156.783 54.6414 172.222 58.6634 187.233L69.3387 227.074L387.474 141.83Z" fill="#F2AD34"/>
<path d="M387.474 141.83L376.798 101.989C372.777 86.9794 357.34 78.0621 342.321 82.0864L78.5715 152.758C63.5514 156.783 54.6414 172.222 58.6634 187.233L69.3387 227.074L387.474 141.83Z" fill="#1C60CF"/>
<path d="M130.205 168.001C122.535 170.056 114.651 165.504 112.596 157.835L106.236 134.098C104.181 126.428 108.733 118.545 116.402 116.49C124.073 114.434 131.956 118.987 134.011 126.656L140.371 150.392C142.426 158.062 137.874 165.946 130.205 168.001Z" fill="#F6AE2D"/>
<path d="M217.347 143.179C209.676 145.234 201.793 140.682 199.738 133.012L193.378 109.276C191.323 101.605 195.875 93.7222 203.545 91.6671C211.215 89.6118 219.098 94.1641 221.153 101.834L227.514 125.57C229.569 133.239 225.018 141.123 217.347 143.179Z" fill="#F6AE2D"/>
</svg>
