<svg xmlns="http://www.w3.org/2000/svg" width="100" height="100" viewBox="0 0 100 100" fill="none">
  <g clip-path="url(#clip0_539_3613)">
    <path d="M50 8C26.8045 8 8 26.8047 8 50.0006C8 73.1957 26.8043 92 50 92C73.1957 92 92 73.1957 92 50.0006C92 26.8047 73.1955 8 50 8Z" fill="white"/>
    <path d="M49.9998 0C22.4296 0 0 22.4298 0 50.0004C0 77.5704 22.4296 100 49.9998 100C77.57 100 100 77.5704 100 50.0004C100 22.4298 77.57 0 49.9998 0ZM49.9998 98.3984C23.3129 98.3984 1.60176 76.6871 1.60176 50.0004C1.60176 23.3133 23.3129 1.60176 49.9998 1.60176C76.6865 1.60176 98.3982 23.3133 98.3982 50.0004C98.3982 76.6871 76.6865 98.3984 49.9998 98.3984Z" fill="white"/>
    <path d="M59.75 59.75H27.5V62.762C27.5 63.1692 27.8307 63.5 28.238 63.5H59.75V59.75Z" fill="#EDD4C2"/>
    <path d="M56.75 59.75H27.5C26.6712 59.75 26 59.0788 26 58.25V37.25C26 36.4212 26.6712 35.75 27.5 35.75H53C55.0707 35.75 56.75 37.4293 56.75 39.5V59.75Z" fill="#17499F"/>
    <path d="M53 35.75H27.5C26.6712 35.75 26 36.4212 26 37.25V38C26 37.1712 26.6712 36.5 27.5 36.5H53C55.0707 36.5 56.75 38.1793 56.75 40.25V39.5C56.75 37.4293 55.0707 35.75 53 35.75Z" fill="#FFF7F2"/>
    <path d="M56.75 59.75H59.7522C62.243 59.75 64.2597 61.7735 64.2522 64.2635L64.25 65H71C72.2428 65 73.25 63.9928 73.25 62.75V50.924L70.691 41.1785C70.4308 40.1893 69.5368 39.5 68.5145 39.5H56.75V59.75Z" fill="#5D8EF9"/>
    <path d="M70.4323 40.5845C70.0317 39.926 69.3155 39.5 68.5145 39.5H56.75V40.25H69.2645C69.689 40.25 70.088 40.3745 70.4323 40.5845Z" fill="#FFA171"/>
    <path d="M59.75 68.75C62.2353 68.75 64.25 66.7353 64.25 64.25C64.25 61.7647 62.2353 59.75 59.75 59.75C57.2647 59.75 55.25 61.7647 55.25 64.25C55.25 66.7353 57.2647 68.75 59.75 68.75Z" fill="#6770E6"/>
    <path d="M59.75 66.5C60.9926 66.5 62 65.4926 62 64.25C62 63.0074 60.9926 62 59.75 62C58.5074 62 57.5 63.0074 57.5 64.25C57.5 65.4926 58.5074 66.5 59.75 66.5Z" fill="#5861C7"/>
    <path d="M32.75 68.75C35.2353 68.75 37.25 66.7353 37.25 64.25C37.25 61.7647 35.2353 59.75 32.75 59.75C30.2647 59.75 28.25 61.7647 28.25 64.25C28.25 66.7353 30.2647 68.75 32.75 68.75Z" fill="#6770E6"/>
    <path d="M32.75 66.5C33.9926 66.5 35 65.4926 35 64.25C35 63.0074 33.9926 62 32.75 62C31.5074 62 30.5 63.0074 30.5 64.25C30.5 65.4926 31.5074 66.5 32.75 66.5Z" fill="#5861C7"/>
    <path d="M73.25 59.75H68.75C68.336 59.75 68 60.086 68 60.5V62.75C68 63.164 68.336 63.5 68.75 63.5H73.25C73.664 63.5 74 63.164 74 62.75V60.5C74 60.086 73.664 59.75 73.25 59.75Z" fill="#E0734A"/>
    <path d="M59.75 43.25V49.775C59.75 50.3675 60.0987 50.9052 60.641 51.146L66.0642 53.5565C66.3515 53.684 66.6628 53.75 66.9778 53.75H73.25V50.924L70.841 41.75H61.25C60.4212 41.75 59.75 42.4212 59.75 43.25Z" fill="#69EBFC"/>
    <path d="M72.5 59H73.25V55.25H72.5C71.6712 55.25 71 55.9212 71 56.75V57.5C71 58.3287 71.6712 59 72.5 59Z" fill="#D476E2"/>
    <path d="M74 68.75H26V74H74V68.75Z" fill="#D476E2"/>
    <path d="M74 72.5H26V74H74V72.5Z" fill="#B665C2"/>
    <path d="M43.25 37.25H27.125C26.504 37.25 26 36.746 26 36.125C26 35.504 26.504 35 27.125 35H43.25V37.25Z" fill="#FF8354"/>
    <path d="M44 41.75H30.875C30.254 41.75 29.75 41.246 29.75 40.625C29.75 40.004 30.254 39.5 30.875 39.5H44V41.75Z" fill="#FF8354"/>
    <path d="M43.25 46.25H27.125C26.504 46.25 26 45.746 26 45.125C26 44.504 26.504 44 27.125 44H43.25V46.25Z" fill="#FF8354"/>
    <path d="M43.25 32.75H28.625C28.004 32.75 27.5 32.246 27.5 31.625C27.5 31.004 28.004 30.5 28.625 30.5H43.25V32.75Z" fill="#FF8354"/>
    <path d="M42.875 46.25C48.4669 46.25 53 41.7169 53 36.125C53 30.5331 48.4669 26 42.875 26C37.2831 26 32.75 30.5331 32.75 36.125C32.75 41.7169 37.2831 46.25 42.875 46.25Z" fill="#FF8354"/>
    <path d="M42.875 43.9137C47.1766 43.9137 50.6637 40.4265 50.6637 36.1249C50.6637 31.8233 47.1766 28.3362 42.875 28.3362C38.5734 28.3362 35.0862 31.8233 35.0862 36.1249C35.0862 40.4265 38.5734 43.9137 42.875 43.9137Z" fill="#FFEFE4"/>
    <path d="M48.5 36.5H43.25C42.836 36.5 42.5 36.164 42.5 35.75V30.5C42.5 30.086 42.836 29.75 43.25 29.75C43.664 29.75 44 30.086 44 30.5V35H48.5C48.914 35 49.25 35.336 49.25 35.75C49.25 36.164 48.914 36.5 48.5 36.5Z" fill="#FF8354"/>
    <path d="M43.25 28.25H30.875C30.254 28.25 29.75 27.746 29.75 27.125C29.75 26.504 30.254 26 30.875 26H43.25V28.25Z" fill="#FF8354"/>
    <path d="M30.875 26.75H43.25V26.7687C48.5397 26.963 52.7847 31.2072 52.9812 36.4955C52.9857 36.3717 53 36.2502 53 36.125C53 30.6597 48.6665 26.2175 43.25 26.0187V26H30.875C30.254 26 29.75 26.504 29.75 27.125C29.75 27.257 29.777 27.3822 29.819 27.5C29.9735 27.0642 30.386 26.75 30.875 26.75Z" fill="#FFA171"/>
    <path d="M33.875 28.25C34.496 28.25 35 28.754 35 29.375C35 29.996 34.496 30.5 33.875 30.5H36.5V28.25H33.875Z" fill="#FF8354"/>
    <path d="M31.625 32.75C32.246 32.75 32.75 33.254 32.75 33.875C32.75 34.496 32.246 35 31.625 35H34.25V32.75H31.625Z" fill="#FF8354"/>
    <path d="M31.625 37.25C32.246 37.25 32.75 37.754 32.75 38.375C32.75 38.996 32.246 39.5 31.625 39.5H34.25V37.25H31.625Z" fill="#FF8354"/>
    <path d="M33.875 41.75C34.496 41.75 35 42.254 35 42.875C35 43.496 34.496 44 33.875 44H36.5V41.75H33.875Z" fill="#FF8354"/>
  </g>
  <defs>
    <clipPath id="clip0_539_3613">
      <rect width="100" height="100" fill="white"/>
    </clipPath>
  </defs>
</svg>