<svg xmlns="http://www.w3.org/2000/svg" width="100" height="100" viewBox="0 0 100 100" fill="none">
  <g clip-path="url(#clip0_539_3578)">
    <path d="M49.9998 7.99377C26.801 7.99377 7.99377 26.8012 7.99377 50.0004C7.99377 73.1989 26.8008 92.0059 49.9998 92.0059C73.1989 92.0059 92.0059 73.1989 92.0059 50.0004C92.0059 26.8012 73.1987 7.99377 49.9998 7.99377Z" fill="white"/>
    <path d="M49.9998 0.195312C22.5373 0.195312 0.195312 22.5375 0.195312 50.0004C0.195312 77.4627 22.5373 99.8047 49.9998 99.8047C77.4623 99.8047 99.8047 77.4627 99.8047 50.0004C99.8047 22.5375 77.4623 0.195312 49.9998 0.195312ZM49.9998 98.2094C23.4172 98.2094 1.79082 76.5828 1.79082 50.0004C1.79082 23.4176 23.4172 1.79082 49.9998 1.79082C76.5822 1.79082 98.2092 23.4176 98.2092 50.0004C98.2092 76.5828 76.5822 98.2094 49.9998 98.2094Z" fill="white"/>
    <path d="M71.3324 73.7451H28.6677C26.2381 73.7451 24.2689 71.7757 24.2689 69.3455V35.0414C24.2689 32.6134 26.2381 30.6433 28.6677 30.6433H71.3324C73.7617 30.6433 75.731 32.6132 75.731 35.0414V69.3455C75.731 71.7757 73.7619 73.7451 71.3324 73.7451Z" fill="#5D8EF9"/>
    <path d="M48.0432 44.8656H41.7012V51.2076H48.0432V44.8656Z" fill="white"/>
    <path d="M58.2988 44.8656H51.9568V51.2076H58.2988V44.8656Z" fill="#FFBE1B"/>
    <path d="M68.5547 44.8656H62.2127V51.2076H68.5547V44.8656Z" fill="white"/>
    <path d="M37.7873 54.1051H31.4453V60.4471H37.7873V54.1051Z" fill="white"/>
    <path d="M48.0432 54.1051H41.7012V60.4471H48.0432V54.1051Z" fill="white"/>
    <path d="M58.2988 54.1051H51.9568V60.4471H58.2988V54.1051Z" fill="white"/>
    <path d="M68.5547 54.1051H62.2127V60.4471H68.5547V54.1051Z" fill="white"/>
    <path d="M37.7873 63.3447H31.4453V69.6867H37.7873V63.3447Z" fill="#FFBE1B"/>
    <path d="M48.0432 63.3447H41.7012V69.6867H48.0432V63.3447Z" fill="#FFBE1B"/>
    <path d="M58.2988 63.3447H51.9568V69.6867H58.2988V63.3447Z" fill="white"/>
    <path d="M68.5547 63.3447H62.2127V69.6867H68.5547V63.3447Z" fill="white"/>
    <path d="M75.731 41.4861V35.0414C75.731 32.6134 73.7619 30.6433 71.3324 30.6433H28.6677C26.2381 30.6433 24.2689 32.6132 24.2689 35.0414V41.4861H75.731Z" fill="#17499F"/>
    <path d="M35.8441 35.0321C34.6035 35.0321 33.5977 34.0262 33.5977 32.7856V28.9459C33.5977 27.7051 34.6035 26.6995 35.8441 26.6995C37.085 26.6995 38.0906 27.7053 38.0906 28.9459V32.7856C38.0906 34.0262 37.0848 35.0321 35.8441 35.0321Z" fill="#5D8EF9"/>
    <path d="M50 34.8098C48.7592 34.8098 47.7535 33.8039 47.7535 32.5633V28.7237C47.7535 27.4828 48.7594 26.4772 50 26.4772C51.2408 26.4772 52.2465 27.483 52.2465 28.7237V32.5633C52.2465 33.8039 51.2408 34.8098 50 34.8098Z" fill="#5D8EF9"/>
    <path d="M64.1558 34.5875C62.915 34.5875 61.9094 33.5816 61.9094 32.341V28.5014C61.9094 27.2607 62.9152 26.2549 64.1558 26.2549C65.3965 26.2549 66.4023 27.2607 66.4023 28.5014V32.341C66.4023 33.5816 65.3967 34.5875 64.1558 34.5875Z" fill="#5D8EF9"/>
    <path d="M31.924 23.1682L32.1545 23.226L31.924 23.2838C30.5746 23.6219 29.5215 24.6754 29.1834 26.0249L29.1254 26.2551L29.0676 26.0249C28.7295 24.6754 27.6762 23.6219 26.3264 23.2838L26.0967 23.226L26.3264 23.1682C27.6762 22.8301 28.7295 21.7764 29.0676 20.4276L29.1254 20.1975L29.1834 20.4276C29.5215 21.7762 30.5746 22.8301 31.924 23.1682Z" fill="#330D84"/>
    <path d="M46.4363 18.1963L46.8998 18.3123L46.4363 18.4283C43.7231 19.1082 41.6055 21.2264 40.9258 23.9397L40.8092 24.4026L40.693 23.9397C40.0133 21.2264 37.8953 19.108 35.1813 18.4283L34.7195 18.3123L35.1813 18.1963C37.8953 17.5164 40.0135 15.3977 40.693 12.6858L40.8092 12.2233L40.9258 12.6858C41.6055 15.3977 43.7231 17.5164 46.4363 18.1963Z" fill="#330D84"/>
    <path d="M63.7504 81.5929L64.1559 81.6945L63.7504 81.796C61.376 82.391 59.5229 84.2447 58.9281 86.6193L58.826 87.0244L58.7242 86.6193C58.1295 84.2449 56.2758 82.391 53.9008 81.796L53.4967 81.6945L53.9008 81.5929C56.276 80.998 58.1295 79.1437 58.7242 76.7707L58.826 76.366L58.9281 76.7707C59.5229 79.1437 61.376 80.9978 63.7504 81.5929Z" fill="#FFBE1B"/>
    <path d="M88.0273 48.7251L88.3928 48.8167L88.0273 48.9083C85.8879 49.4445 84.2182 51.1148 83.6822 53.2542L83.5902 53.6193L83.4986 53.2542C82.9627 51.1148 81.2926 49.4443 79.1523 48.9083L78.7883 48.8167L79.1523 48.7251C81.2926 48.189 82.9627 46.5183 83.4986 44.38L83.5902 44.0154L83.6822 44.38C84.2182 46.5181 85.8879 48.189 88.0273 48.7251Z" fill="#5D8EF9"/>
  </g>
  <defs>
    <clipPath id="clip0_539_3578">
      <rect width="100" height="100" fill="white"/>
    </clipPath>
  </defs>
</svg>