<svg xmlns="http://www.w3.org/2000/svg" width="48" height="48" viewBox="0 0 48 48" fill="none">
  <path d="M41.5951 22.4998C41.2013 22.4487 40.8034 22.5558 40.4885 22.7976C40.1736 23.0394 39.9674 23.3962 39.9151 23.7898C38.4151 35.3548 33.2551 42.2248 25.4701 43.2898C25.4328 42.9185 25.2584 42.5745 24.981 42.3248C24.7037 42.0752 24.3432 41.9379 23.9701 41.9398C23.5722 41.9398 23.1907 42.0978 22.9094 42.3791C22.6281 42.6604 22.4701 43.042 22.4701 43.4398C22.5601 43.7398 21.9301 46.4398 23.9701 46.4398H24.0601C30.0601 46.1698 40.3351 42.9148 42.8551 24.1498C42.8984 23.7654 42.7914 23.3791 42.5566 23.0716C42.3218 22.7641 41.9773 22.5593 41.5951 22.4998Z" fill="#039BE5"/>
  <path d="M12.675 15.075C12.6851 14.8718 12.6539 14.6687 12.5831 14.4779C12.5122 14.2872 12.4034 14.1128 12.263 13.9655C12.1227 13.8182 11.9539 13.7009 11.7669 13.6209C11.5798 13.5409 11.3784 13.4997 11.175 13.5H5.99996C5.60214 13.5 5.22061 13.658 4.9393 13.9393C4.658 14.2206 4.49996 14.6022 4.49996 15C4.48158 18.0798 4.67705 21.1572 5.08496 24.21C5.13591 24.5704 5.31617 24.9 5.59214 25.1374C5.86812 25.3747 6.22098 25.5036 6.58496 25.5H11.64C11.8559 25.5021 12.0698 25.4576 12.267 25.3694C12.4642 25.2813 12.64 25.1516 12.7824 24.9892C12.9248 24.8269 13.0305 24.6357 13.0922 24.4287C13.1539 24.2217 13.1702 24.0039 13.14 23.79C12.7576 20.9016 12.6021 17.9877 12.675 15.075Z" fill="#FFB74D"/>
  <path d="M41.9999 13.5H36.8249C36.6214 13.4997 36.42 13.5409 36.233 13.6209C36.0459 13.7009 35.8771 13.8182 35.7368 13.9655C35.5965 14.1128 35.4876 14.2872 35.4168 14.4779C35.346 14.6687 35.3147 14.8718 35.3249 15.075C35.3249 15.345 35.3249 15.6 35.3249 15.855C35.344 18.5078 35.1836 21.1588 34.8449 23.79C34.8146 24.0039 34.8309 24.2217 34.8926 24.4287C34.9543 24.6357 35.06 24.8269 35.2024 24.9892C35.3449 25.1516 35.5207 25.2813 35.7178 25.3694C35.915 25.4576 36.1289 25.5021 36.3449 25.5H41.3999C41.7638 25.5036 42.1167 25.3747 42.3927 25.1374C42.6687 24.9 42.8489 24.5704 42.8999 24.21C43.3128 21.1576 43.5133 18.0802 43.4999 15C43.4999 14.6022 43.3418 14.2206 43.0605 13.9393C42.7792 13.658 42.3977 13.5 41.9999 13.5Z" fill="#FFB74D"/>
  <path d="M24.0001 1.5C20.3573 1.50327 16.8518 2.88987 14.1924 5.37935C11.5331 7.86884 9.91842 11.2754 9.67507 14.91C9.66278 15.1144 9.69248 15.3192 9.76234 15.5117C9.8322 15.7042 9.94074 15.8804 10.0813 16.0293C10.2218 16.1783 10.3914 16.2969 10.5795 16.3779C10.7676 16.4588 10.9703 16.5004 11.1751 16.5H36.8251C37.0299 16.5004 37.2326 16.4588 37.4207 16.3779C37.6088 16.2969 37.7783 16.1783 37.9189 16.0293C38.0594 15.8804 38.1679 15.7042 38.2378 15.5117C38.3077 15.3192 38.3374 15.1144 38.3251 14.91C38.0817 11.2754 36.4671 7.86884 33.8077 5.37935C31.1484 2.88987 27.6428 1.50327 24.0001 1.5Z" fill="#FFB74D"/>
  <path d="M38.3549 15.855C38.3549 15.06 38.2499 14.28 38.2799 13.5H9.7799C9.7799 14.28 9.7049 15 9.7049 15.855C9.6449 27.765 12.1499 40.5 23.9999 40.5C35.8499 40.5 38.3549 27.735 38.3549 15.855Z" fill="#FFE082"/>
  <path d="M24 34.5C23.2028 34.5199 22.4147 34.3276 21.7162 33.9428C21.0178 33.558 20.4341 32.9945 20.025 32.31C19.883 31.9852 19.8606 31.6206 19.9619 31.2809C20.0631 30.9412 20.2813 30.6483 20.5779 30.4541C20.8745 30.26 21.2303 30.1772 21.5821 30.2204C21.934 30.2635 22.2592 30.4299 22.5 30.69C22.6383 30.9613 22.8558 31.1841 23.1238 31.3288C23.3917 31.4735 23.6973 31.5332 24 31.5C24.3027 31.5332 24.6083 31.4735 24.8763 31.3288C25.1442 31.1841 25.3617 30.9613 25.5 30.69C25.7152 30.3563 26.054 30.1215 26.442 30.0372C26.83 29.9528 27.2357 30.0258 27.57 30.24C27.9037 30.4552 28.1385 30.794 28.2229 31.182C28.3072 31.5701 28.2343 31.9757 28.02 32.31C27.6072 33.0013 27.0164 33.5692 26.3093 33.9544C25.6022 34.3396 24.8047 34.528 24 34.5Z" fill="#039BE5"/>
</svg>