<svg xmlns="http://www.w3.org/2000/svg" width="48" height="48" viewBox="0 0 48 48" fill="none">
  <path d="M47 4V32C47 33.0609 46.5786 34.0783 45.8284 34.8284C45.0783 35.5786 44.0609 36 43 36H9L1 42V4C1 2.93913 1.42143 1.92172 2.17157 1.17157C2.92172 0.421427 3.93913 0 5 0H43C44.0609 0 45.0783 0.421427 45.8284 1.17157C46.5786 1.92172 47 2.93913 47 4Z" fill="#FFCC66"/>
  <path d="M47 4C47 34.36 47.22 32.68 46.46 34H23C17.6957 34 12.6086 31.8929 8.85786 28.1421C5.10714 24.3914 3 19.3043 3 14V0.54C3.60768 0.187493 4.29748 0.00124668 5 0H43C44.0609 0 45.0783 0.421427 45.8284 1.17157C46.5786 1.92172 47 2.93913 47 4Z" fill="#FFDE76"/>
  <path d="M26 30.0002C26.0007 30.3601 25.9044 30.7134 25.7211 31.0231C25.5379 31.3327 25.2744 31.5872 24.9586 31.7597C24.6428 31.9322 24.2864 32.0162 23.9268 32.0031C23.5672 31.9899 23.2178 31.8799 22.9155 31.6848C22.6131 31.4897 22.3691 31.2166 22.2089 30.8944C22.0488 30.5721 21.9786 30.2127 22.0057 29.8539C22.0328 29.4951 22.1561 29.1502 22.3628 28.8556C22.5695 28.5611 22.8518 28.3278 23.18 28.1802C23.4843 28.0435 23.8179 27.985 24.1505 28.0101C24.4832 28.0352 24.8042 28.1431 25.0845 28.324C25.3648 28.5049 25.5954 28.753 25.7553 29.0458C25.9152 29.3385 25.9993 29.6666 26 30.0002Z" fill="#DB5669"/>
  <path d="M25.82 30.8198C25.4506 30.984 25.0401 31.0324 24.6426 30.9586C24.245 30.8849 23.8792 30.6923 23.5934 30.4065C23.3075 30.1206 23.1149 29.7548 23.0412 29.3573C22.9674 28.9598 23.0158 28.5492 23.18 28.1798C23.5495 28.0155 23.96 27.9671 24.3575 28.0409C24.755 28.1147 25.1208 28.3072 25.4067 28.5931C25.6926 28.879 25.8851 29.2448 25.9589 29.6423C26.0327 30.0398 25.9843 30.4503 25.82 30.8198Z" fill="#F26674"/>
  <path d="M26.85 6.85996C26.85 7.07996 26.65 11.07 26.1 22C26.1 22.5569 25.8788 23.0911 25.485 23.4849C25.0911 23.8787 24.557 24.1 24 24.1C23.4431 24.1 22.9089 23.8787 22.5151 23.4849C22.1213 23.0911 21.9 22.5569 21.9 22L21.15 6.99996C21.1315 6.2441 21.4139 5.51181 21.9353 4.96421C22.4566 4.4166 23.1742 4.09853 23.93 4.07996C24.6859 4.0614 25.4182 4.34386 25.9658 4.86521C26.5134 5.38656 26.8315 6.10409 26.85 6.85996Z" fill="#DB5669"/>
  <path d="M26.8499 6.86011C26.8499 7.08011 26.6499 11.0701 26.0999 22.0001C25.5435 22.0246 24.9999 21.8281 24.5878 21.4534C24.1757 21.0788 23.9284 20.5563 23.8999 20.0001C23.0799 3.66011 23.0699 4.70011 23.2599 4.10011C23.6828 3.98847 24.1256 3.97531 24.5544 4.06162C24.9831 4.14794 25.3863 4.33143 25.7331 4.598C26.0798 4.86456 26.3608 5.20709 26.5544 5.59925C26.748 5.99141 26.8491 6.42275 26.8499 6.86011Z" fill="#F26674"/>
</svg>