<svg width="537" height="424" viewBox="0 0 537 424" fill="none" xmlns="http://www.w3.org/2000/svg">
<g clip-path="url(#clip0_539_3388)">
<path d="M258.803 629.812L614.686 534.453C621.754 532.56 625.711 525.024 623.281 518.083L504.689 179.191C501.413 169.831 491.514 164.569 481.982 167.124L190.063 245.343C180.531 247.897 174.589 257.403 176.432 267.148L243.174 619.933C244.541 627.159 251.735 631.706 258.803 629.812Z" fill="#FFD59A"/>
<path d="M300.85 604.478L234.108 251.693C232.265 241.949 238.207 232.443 247.739 229.889L190.063 245.343C180.531 247.897 174.589 257.403 176.432 267.148L243.174 619.933C244.541 627.159 251.735 631.706 258.803 629.812L316.479 614.358C309.411 616.252 302.217 611.704 300.85 604.478Z" fill="#FCF9DE"/>
<path d="M256.661 293.551C271.441 289.591 280.195 274.34 276.215 259.486C272.235 244.632 257.028 235.801 242.248 239.761C227.469 243.722 218.714 258.973 222.694 273.827C226.675 288.681 241.882 297.512 256.661 293.551Z" fill="#F9BB32"/>
<path d="M448.41 242.172C463.19 238.212 471.944 222.961 467.964 208.107C463.984 193.253 448.777 184.422 433.997 188.382C419.218 192.343 410.464 207.594 414.444 222.448C418.424 237.302 433.631 246.133 448.41 242.172Z" fill="#F9BB32"/>
<path d="M251.85 275.906C260.341 273.631 265.381 264.902 263.106 256.41L240.72 172.864C232.485 142.132 250.598 110.577 281.177 102.384L331.308 88.9512C361.886 80.7578 393.35 99.0287 401.585 129.76L423.971 213.306C426.246 221.798 434.976 226.838 443.467 224.563L443.474 224.561C451.966 222.285 457.006 213.556 454.73 205.064L432.344 121.518C419.535 73.7136 370.591 45.2924 323.025 58.0378L272.895 71.4702C225.328 84.2156 197.152 133.301 209.961 181.105L232.348 264.652C234.623 273.144 243.352 278.183 251.844 275.908L251.85 275.906Z" fill="#DB9C2E"/>
<path d="M253.049 272.703L230.663 189.157C217.854 141.353 246.029 92.2673 293.596 79.5218L343.726 66.0894C358.831 62.0422 374.071 62.1587 388.252 65.7171C368.946 55.299 345.832 51.9251 323.023 58.0366L272.893 71.469C225.326 84.2145 197.151 133.3 209.96 181.104L232.346 264.651C234.621 273.142 243.351 278.182 251.842 275.907L251.848 275.905C252.578 275.71 253.272 275.451 253.947 275.164C253.592 274.379 253.28 273.565 253.049 272.703Z" fill="#BF6C0D"/>
<path d="M585.014 483.513C581.566 484.437 577.911 482.613 576.624 479.202L526.421 346.174C525.049 342.541 526.884 338.484 530.516 337.113C534.147 335.744 538.206 337.575 539.577 341.208L589.781 474.236C591.152 477.869 589.318 481.926 585.685 483.297C585.463 483.382 585.238 483.453 585.014 483.513Z" fill="#FCF9DE"/>
</g>
<defs>
<clipPath id="clip0_539_3388">
<rect width="600" height="600" fill="white" transform="translate(0 111.291) rotate(-15)"/>
</clipPath>
</defs>
</svg>
