<svg width="239" height="307" viewBox="0 0 239 307" fill="none" xmlns="http://www.w3.org/2000/svg">
<path d="M60 53.3334V106.667H126.667C126.672 95.4807 123.16 84.5761 116.628 75.4956C110.096 66.4151 100.874 59.6183 90.2667 56.0667C80.4265 53.3303 70.1712 52.4042 60 53.3334Z" fill="#BF6C0D"/>
<path d="M60 53.3334V100H97.6667C99.7768 100.009 101.859 99.5171 103.742 98.5646C105.625 97.6122 107.255 96.2264 108.498 94.5213C109.741 92.8162 110.561 90.8404 110.892 88.7563C111.223 86.6723 111.054 84.5395 110.4 82.5334C106.754 71.7359 99.7446 62.3904 90.4 55.8667C80.5049 53.1813 70.2031 52.3228 60 53.3334Z" fill="#FCF9DE"/>
<path d="M66.6666 213.333L86.6666 266.667H313.333V226.667C313.337 213.964 310.315 201.443 304.519 190.14C298.722 178.837 290.318 169.077 280 161.667C254.8 143.533 234.667 146.667 193.333 146.667V213.333C193.333 220.406 190.524 227.188 185.523 232.189C180.522 237.19 173.739 240 166.667 240H113.333V106.667H86.6666L66.6666 213.333Z" fill="#DAD7E5"/>
<path d="M206.667 160V226.667C206.667 233.739 203.857 240.522 198.856 245.523C193.855 250.524 187.072 253.333 180 253.333H140C136.464 253.333 133.072 251.929 130.572 249.428C128.071 246.928 126.667 243.536 126.667 240H166.667C173.739 240 180.522 237.191 185.523 232.19C190.524 227.189 193.333 220.406 193.333 213.333V146.667C233.867 146.667 267.667 141.267 296.067 177.2C269.8 156.533 249.2 160 206.667 160Z" fill="#EDEBF2"/>
<path d="M66.6666 213.333L77.6667 242.733C81.4667 221.933 97.6666 134.667 97.1333 135.6C97.4666 133.669 97.3703 131.689 96.8512 129.799C96.3321 127.91 95.403 126.158 94.1299 124.669C92.8569 123.18 91.2713 121.989 89.4859 121.182C87.7004 120.375 85.7591 119.971 83.8 120C83.4666 120 85.2666 114 66.6666 213.333Z" fill="#EDEBF2"/>
<path d="M6.66663 266.667H86.6666L66.6666 213.333C49.8 213.333 36 215.267 22.2666 228.933C17.3155 233.89 13.3894 239.774 10.7127 246.248C8.03597 252.722 6.66112 259.661 6.66663 266.667Z" fill="#BF6C0D"/>
<path d="M17.8667 253.333H72.0667C73.1394 253.326 74.1945 253.06 75.1425 252.558C76.0904 252.056 76.9032 251.332 77.5118 250.449C78.1203 249.565 78.5067 248.548 78.6382 247.484C78.7696 246.419 78.6422 245.338 78.2667 244.333L66.6667 213.333H60C49.9503 213.337 40.1063 216.18 31.6021 221.535C23.098 226.89 16.2798 234.539 11.9333 243.6C11.4063 244.617 11.1504 245.753 11.1901 246.898C11.2299 248.043 11.5641 249.159 12.1604 250.137C12.7567 251.115 13.5951 251.923 14.5946 252.483C15.5941 253.043 16.721 253.336 17.8667 253.333Z" fill="#FCF9DE"/>
<path d="M220 173.333V240H286.667C286.667 223.467 288.533 200 263.733 182.933C248.133 171.933 234.267 173.333 220 173.333Z" fill="#BF6C0D"/>
<path d="M220 173.333V226.667H273.333C273.333 210.267 274.4 198.067 263.733 182.933C248.133 171.933 234.267 173.333 220 173.333Z" fill="#FCF9DE"/>
<path d="M220 200V213.333H233.333C235.101 213.333 236.797 212.631 238.047 211.381C239.298 210.13 240 208.435 240 206.667C240 204.899 239.298 203.203 238.047 201.953C236.797 200.702 235.101 200 233.333 200H220Z" fill="#FFBA55"/>
<path d="M66.6666 306.667C71.6101 306.668 76.4919 305.569 80.9584 303.451C85.4249 301.332 89.3643 298.247 92.4912 294.418C95.6181 290.589 97.8542 286.112 99.0376 281.313C100.221 276.513 100.322 271.51 99.3333 266.667H33.9999C33.0113 271.51 33.1123 276.513 34.2957 281.313C35.479 286.112 37.7152 290.589 40.8421 294.418C43.969 298.247 47.9084 301.332 52.3749 303.451C56.8414 305.569 61.7232 306.668 66.6666 306.667Z" fill="#020D1C"/>
<path d="M34 266.667H99.3333C99.7927 268.859 100.016 271.094 100 273.333H47.3333C46.1119 279.274 46.555 285.437 48.6136 291.143C50.6722 296.848 54.2665 301.874 59 305.667C50.5899 303.675 43.2822 298.495 38.6181 291.219C33.9539 283.943 32.2981 275.14 34 266.667Z" fill="#2C435E"/>
<path d="M221.333 306.667C226.277 306.668 231.159 305.569 235.625 303.451C240.092 301.332 244.031 298.247 247.158 294.418C250.285 290.589 252.521 286.112 253.704 281.313C254.888 276.513 254.989 271.51 254 266.667H188.667C187.678 271.51 187.779 276.513 188.962 281.313C190.146 286.112 192.382 290.589 195.509 294.418C198.636 298.247 202.575 301.332 207.042 303.451C211.508 305.569 216.39 306.668 221.333 306.667Z" fill="#020D1C"/>
<path d="M188.667 266.667H254C254.459 268.859 254.683 271.094 254.667 273.333H202C200.779 279.274 201.222 285.437 203.28 291.143C205.339 296.848 208.933 301.874 213.667 305.667C205.257 303.675 197.949 298.495 193.285 291.219C188.621 283.943 186.965 275.14 188.667 266.667Z" fill="#2C435E"/>
<path d="M208 273.333C208 276.87 209.405 280.261 211.905 282.761C214.406 285.262 217.797 286.667 221.333 286.667C224.87 286.667 228.261 285.262 230.761 282.761C233.262 280.261 234.667 276.87 234.667 273.333H208Z" fill="#DAD7E5"/>
<path d="M53.3333 273.333C53.3333 276.87 54.7381 280.261 57.2386 282.761C59.7391 285.262 63.1304 286.667 66.6667 286.667C70.2029 286.667 73.5943 285.262 76.0948 282.761C78.5953 280.261 80 276.87 80 273.333H53.3333Z" fill="#DAD7E5"/>
<path d="M173.333 133.333V146.667C233 146.667 253.733 142.733 280 161.667V120H186.667C183.13 120 179.739 121.405 177.239 123.905C174.738 126.406 173.333 129.797 173.333 133.333Z" fill="#DF8761"/>
<path d="M173.333 133.333V146.667C233 146.667 253.733 142.733 280 161.667V120H186.667C183.13 120 179.739 121.405 177.239 123.905C174.738 126.406 173.333 129.797 173.333 133.333Z" fill="#425B72"/>
<path d="M180 140V146.667H233.333C250.063 146.736 266.363 151.975 280 161.667C280 152.384 276.313 143.482 269.749 136.918C263.185 130.354 254.283 126.667 245 126.667H193.333C189.797 126.667 186.406 128.071 183.905 130.572C181.405 133.072 180 136.464 180 140Z" fill="#020D1C"/>
<path d="M186.667 20H293.333V120H186.667V20Z" fill="#A87E6B"/>
<path d="M186.667 20V106.667H226.667C240.812 106.667 254.377 101.048 264.379 91.0457C274.381 81.0438 280 67.4782 280 53.3333V20H186.667Z" fill="#758E4F"/>
<path d="M106.667 86.6667H146.667C148.435 86.6667 150.13 85.9643 151.381 84.7141C152.631 83.4638 153.333 81.7682 153.333 80C153.333 78.2319 152.631 76.5362 151.381 75.286C150.13 74.0358 148.435 73.3334 146.667 73.3334H106.667C104.899 73.3334 103.203 74.0358 101.953 75.286C100.702 76.5362 100 78.2319 100 80C100 81.7682 100.702 83.4638 101.953 84.7141C103.203 85.9643 104.899 86.6667 106.667 86.6667Z" fill="#020D1C"/>
<path d="M226.667 20H253.333V46.6667H226.667V20Z" fill="#F6CCAF"/>
<path d="M226.667 20V40C231.971 40 237.058 37.8929 240.809 34.1421C244.559 30.3914 246.667 25.3043 246.667 20H226.667Z" fill="#FFDEC7"/>
<path d="M233.333 100H246.667C248.435 100 250.13 99.2976 251.381 98.0473C252.631 96.7971 253.333 95.1014 253.333 93.3333C253.333 91.5652 252.631 89.8695 251.381 88.6192C250.13 87.369 248.435 86.6666 246.667 86.6666H233.333C231.565 86.6666 229.87 87.369 228.619 88.6192C227.369 89.8695 226.667 91.5652 226.667 93.3333C226.667 95.1014 227.369 96.7971 228.619 98.0473C229.87 99.2976 231.565 100 233.333 100Z" fill="#EDEBF2"/>
</svg>
