<svg xmlns="http://www.w3.org/2000/svg" width="40" height="40" viewBox="0 0 40 40" fill="none">
  <g clip-path="url(#clip0_228_16966)">
    <path d="M35.7848 0H2.06278C0.986547 0 0 0.993228 0 2.16704V5.95937C0 7.13318 0.986547 8.12641 2.06278 8.12641H35.7848C36.9507 8.12641 37.8475 7.13318 37.9372 5.95937V2.16704C37.9372 0.993228 36.9507 0 35.7848 0ZM35.7848 21.3093H2.06278C1.52466 21.3093 0.986547 21.5801 0.538117 21.9413C0.179372 22.3025 0 22.8442 0 23.4763V27.2686C0 28.4424 0.986547 29.4357 2.06278 29.4357H35.7848C36.9507 29.4357 37.8475 28.5327 37.9372 27.2686V23.4763C37.9372 22.2122 36.9507 21.3093 35.7848 21.3093ZM21.0762 31.9639H2.06278C1.52466 31.9639 0.986547 32.1445 0.627803 32.5959C0.269058 32.9571 0 33.4989 0 34.1309V37.9232C0 39.0971 0.986547 40.0903 2.06278 40.0903H20.9865C22.1525 40.0903 23.0493 39.0971 23.0493 37.9232V34.0406C23.139 32.8668 22.2422 31.9639 21.0762 31.9639ZM37.9372 10.6546H2.06278C1.52466 10.6546 0.986547 10.8352 0.627803 11.2867C0.269058 11.6479 0 12.1896 0 12.8217V16.614C0 17.7878 0.986547 18.781 2.06278 18.781H37.8475C39.0135 18.781 39.9103 17.7878 39.9103 16.614V12.8217C40 11.6479 39.1031 10.6546 37.9372 10.6546Z" fill="#00C3F7"/>
  </g>
  <defs>
    <clipPath id="clip0_228_16966">
      <rect width="40" height="40" fill="white"/>
    </clipPath>
  </defs>
</svg>