<svg xmlns="http://www.w3.org/2000/svg" width="97" height="102" viewBox="0 0 97 102" fill="none">
  <g clip-path="url(#clip0_299_1237)">
    <path d="M91.8272 9.62213C90.9089 6.19498 87.3539 4.14219 83.927 5.06045L13.4993 23.9315C10.0721 24.8498 8.01964 28.4051 8.93795 31.8322L30.6471 112.852C31.5654 116.279 35.1207 118.332 38.5477 117.413L108.975 98.5423C112.402 97.6242 114.454 94.0688 113.536 90.6417L91.8272 9.62213Z" fill="#6FABE6"/>
    <path d="M83.927 5.06045L13.4993 23.9315C10.0721 24.8498 8.01964 28.4051 8.93795 31.8322L11.6952 42.1226L94.5845 19.9124L91.8272 9.62213C90.9089 6.19498 87.3538 4.14224 83.927 5.06045Z" fill="#07335F"/>
    <path d="M67.2471 83.6686C77.5709 80.9023 83.6975 70.2907 80.9312 59.9669C78.165 49.6431 67.5534 43.5165 57.2295 46.2827C46.9057 49.049 40.7791 59.6606 43.5454 69.9844C46.3116 80.3083 56.9232 86.4349 67.2471 83.6686Z" fill="white"/>
    <path d="M79.2342 55.7215C77.9231 56.3054 76.7751 57.2845 76.0062 58.6152C74.0703 61.9708 69.7387 63.1314 66.3833 61.1936C63.0275 59.2563 58.6967 60.4167 56.759 63.7724C54.8217 67.1284 50.4915 68.2887 47.1356 66.351C45.8045 65.583 44.3215 65.3089 42.8939 65.4589C42.9327 66.9565 43.1415 68.4731 43.5463 69.9841C46.3125 80.3076 56.9243 86.4343 67.2478 83.6681C77.5715 80.9019 83.6981 70.2905 80.9318 59.9666C80.5266 58.456 79.9498 57.038 79.2342 55.7215Z" fill="#6FABE6"/>
    <path d="M62.7753 16.8604C62.4079 15.4892 60.9858 14.6684 59.6149 15.0357L39.5404 20.4146C38.1696 20.7819 37.3482 22.2035 37.7157 23.5751L39.1349 28.8714C39.5022 30.2424 40.9244 31.0636 42.2954 30.6963L62.37 25.3173C63.7408 24.95 64.562 23.5279 64.1946 22.1567L62.7755 16.8603L62.7753 16.8604Z" fill="#6FABE6"/>
    <path d="M58.1545 17.7077L42.1409 21.9985L43.7551 28.0227L59.7687 23.7319L58.1545 17.7077Z" fill="white"/>
    <path d="M83.5103 3.50552L13.0827 22.3766C8.78938 23.5269 6.23233 27.9559 7.38276 32.2493L29.0919 113.269C30.2423 117.562 34.6712 120.119 38.9645 118.969L109.392 100.098C113.685 98.9476 116.242 94.5188 115.092 90.2253L93.3824 9.20581C92.2322 4.91229 87.8034 2.35519 83.5103 3.50552ZM108.559 96.9875L38.1311 115.859C36.0979 116.403 34.0153 115.563 32.8862 113.919L112.131 92.6857C111.975 94.6735 110.592 96.4428 108.559 96.9875ZM111.564 89.5034L31.7857 110.88L13.6674 43.2617L93.4459 21.8851L111.564 89.5034ZM40.6907 28.4548L39.2715 23.1584C39.1354 22.6506 39.4494 22.1064 39.9575 21.9703L60.0322 16.5913C60.54 16.4552 61.0842 16.7692 61.2203 17.2773L62.6395 22.5736C62.7756 23.0817 62.4616 23.6258 61.9535 23.762L41.8789 29.141C41.3708 29.2769 40.8268 28.9629 40.6907 28.4548ZM92.6126 18.7745L63.6403 26.5376C65.342 25.6493 66.2666 23.6697 65.7497 21.7403L64.3305 16.4439C63.7324 14.2119 61.4301 12.8826 59.1981 13.4807L39.1236 18.8596C36.8916 19.4577 35.5623 21.7601 36.1604 23.9921L37.5795 29.2884C38.0965 31.2178 39.8874 32.4698 41.8049 32.3883L12.8339 40.1511L10.4933 31.4159C9.80247 28.8375 11.3379 26.178 13.9161 25.4871L84.3436 6.61616C86.9216 5.92538 89.581 7.46109 90.2718 10.0393L92.6126 18.7745ZM54.7972 74.588C56.0018 74.2652 56.7168 73.0271 56.3942 71.8228C56.0714 70.6181 54.8334 69.9032 53.6285 70.2261C52.4243 70.5487 51.7094 71.7867 52.0322 72.9916C52.3549 74.1958 53.5932 74.9106 54.7972 74.588ZM32.4677 25.3155C31.1777 25.6612 30.4116 26.9875 30.7574 28.2781C31.1032 29.5685 32.4299 30.3344 33.7199 29.9888C35.0111 29.6428 35.7768 28.3162 35.4311 27.0258C35.0852 25.7352 33.7587 24.9696 32.4677 25.3155ZM71.3272 76.2313C72.8918 75.8121 73.8202 74.2038 73.401 72.6394C72.982 71.0754 71.3735 70.1468 69.8092 70.566C68.2452 70.985 67.3166 72.5935 67.7357 74.1574C68.1548 75.7216 69.7633 76.6504 71.3272 76.2313ZM68.1915 15.7434C66.9005 16.0893 66.1347 17.4155 66.4805 18.7061C66.8262 19.9965 68.1529 20.7625 69.4437 20.4166C70.7341 20.0708 71.4997 18.7443 71.1539 17.4539C70.8081 16.1635 69.4819 15.3976 68.1915 15.7434ZM67.6646 85.2238C78.8294 82.2322 85.4788 70.7151 82.4872 59.5503C79.4956 48.3856 67.9783 41.7362 56.8137 44.7277C45.6492 47.7193 38.9995 59.2365 41.9911 70.4012C44.9827 81.566 56.4999 88.2154 67.6646 85.2238ZM57.6472 47.8385C65.1841 45.819 72.906 48.9937 77.0097 55.1545C76.0357 55.8586 75.2211 56.7562 74.6118 57.8108C73.8903 59.0612 72.7183 59.9574 71.3105 60.3346C69.9029 60.7118 68.439 60.5217 67.1884 59.7995C63.0551 57.4131 57.7513 58.8345 55.3645 62.9679C54.6425 64.2185 53.4699 65.115 52.0628 65.4921C50.6554 65.8692 49.1913 65.6791 47.9401 64.9566C46.8859 64.3484 45.7318 63.9785 44.5368 63.856C45.01 56.4686 50.1104 49.858 57.6472 47.8385ZM44.6302 67.1229C45.2256 67.2327 45.7991 67.4395 46.3303 67.7461C48.326 68.8981 50.6579 69.2026 52.8963 68.6028C55.1345 68.0031 57.0016 66.5735 58.1535 64.5781C59.6525 61.9825 62.9833 61.0902 65.5782 62.5884C67.5735 63.7407 69.9053 64.0453 72.1442 63.4453C74.383 62.8455 76.2501 61.4159 77.4006 59.4212C77.7076 58.8897 78.1013 58.4239 78.5623 58.0308C78.8828 58.7855 79.1582 59.5694 79.3764 60.3839C81.9084 69.8333 76.2807 79.581 66.8311 82.113C57.3814 84.6451 47.6339 79.0173 45.1019 69.5677C44.8834 68.7531 44.7301 67.9371 44.6302 67.1229ZM68.8333 89.5856C82.4033 85.9495 90.485 71.9515 86.8489 58.3816C83.213 44.812 69.2151 36.7305 55.6451 40.3665C43.5879 43.5973 35.8644 55.0089 36.8431 67.0321L36.1191 67.2261L38.4935 76.0875L39.2179 75.8934C44.3814 86.7951 56.7761 92.8163 68.8333 89.5856ZM56.4786 43.4771C68.3333 40.3007 80.5618 47.3607 83.7382 59.2151C86.9146 71.0698 79.8545 83.2983 67.9998 86.4748C56.1453 89.6512 43.917 82.591 40.7405 70.7363C37.5639 58.8819 44.6241 46.6535 56.4786 43.4771ZM75.7206 13.726C74.4302 14.0717 73.6642 15.398 74.01 16.6886C74.3558 17.979 75.6824 18.745 76.9728 18.3992C78.2636 18.0533 79.0292 16.7268 78.6834 15.4364C78.3378 14.1457 77.0112 13.3801 75.7206 13.726Z" fill="#07335F"/>
  </g>
  <defs>
    <clipPath id="clip0_299_1237">
      <rect width="100" height="100" fill="white" transform="translate(0 25.8818) rotate(-15)"/>
    </clipPath>
  </defs>
</svg>