<svg xmlns="http://www.w3.org/2000/svg" width="120" height="120" viewBox="0 0 120 120" fill="none">
  <path d="M92.5 22.5H2.5V117.5H92.5V22.5Z" fill="#DAD7E5"/>
  <path d="M92.5 22.5C92.5 115.625 92.25 112.5 92.5 112.5C70.6196 112.5 49.6354 103.808 34.1637 88.3363C18.6919 72.8646 10 51.8804 10 30V22.5H92.5Z" fill="#EDEBF2"/>
  <path d="M32.5 2.5H2.5V22.5H32.5V2.5Z" fill="#7C7D7D"/>
  <path d="M32.5 2.5V17.5H25C21.0218 17.5 17.2064 15.9196 14.3934 13.1066C11.5804 10.2936 10 6.47825 10 2.5H32.5Z" fill="#919191"/>
  <path d="M92.5 2.5H32.5V22.5H92.5V2.5Z" fill="#DAD7E5"/>
  <path d="M92.5 2.5V17.5H47.5C43.5218 17.5 39.7064 15.9196 36.8934 13.1066C34.0804 10.2936 32.5 6.47825 32.5 2.5H92.5Z" fill="#EDEBF2"/>
  <path d="M58.9747 78.975C58.2796 79.6742 57.8068 80.5632 57.6156 81.5303C57.4244 82.4975 57.5234 83.4996 57.9001 84.4106C58.2768 85.3217 58.9144 86.101 59.7328 86.6507C60.5512 87.2004 61.5138 87.4959 62.4997 87.5C61.1736 87.5 59.9018 88.0268 58.9641 88.9645C58.0265 89.9021 57.4997 91.1739 57.4997 92.5C57.4997 93.8261 58.0265 95.0979 58.9641 96.0355C59.9018 96.9732 61.1736 97.5 62.4997 97.5H64.7997C58.4228 101.508 50.8518 103.176 43.381 102.22C35.9102 101.264 29.0033 97.7434 23.8409 92.2592C18.6786 86.7749 15.5812 79.6679 15.0784 72.153C14.5756 64.638 16.6984 57.1817 21.0841 51.0586C25.4698 44.9355 31.8461 40.5257 39.1229 38.5829C46.3998 36.6402 54.1255 37.2852 60.9795 40.4077C67.8335 43.5301 73.3903 48.9362 76.6999 55.7018C80.0096 62.4674 80.8667 70.1725 79.1247 77.5C61.3247 77.5 60.8997 77 58.9747 78.975Z" fill="#7C7D7D"/>
  <path d="M79.1251 77.5H62.5001C61.174 77.5 59.9023 78.0268 58.9646 78.9645C58.0269 79.9022 57.5001 81.1739 57.5001 82.5C57.5001 83.8261 58.0269 85.0979 58.9646 86.0355C59.9023 86.9732 61.174 87.5 62.5001 87.5C61.3581 87.4996 60.2504 87.8901 59.3611 88.6066C58.4718 89.3231 57.8546 90.3224 57.6122 91.4384C57.3697 92.5544 57.5165 93.7197 58.0283 94.7406C58.5401 95.7615 59.3859 96.5765 60.4251 97.05C28.2751 102.5 9.20012 62.05 33.4751 40.675C39.0091 38.0267 45.1797 36.9988 51.2734 37.7103C57.367 38.4217 63.1349 40.8434 67.91 44.6954C72.685 48.5474 76.2723 53.6722 78.257 59.4774C80.2416 65.2826 80.5426 71.5309 79.1251 77.5Z" fill="#919191"/>
  <path d="M67.4997 59.575C66.3682 59.9751 65.1572 60.0977 63.9684 59.9327C62.7796 59.7676 61.6478 59.3197 60.668 58.6265C59.6882 57.9333 58.8891 57.0151 58.3378 55.9491C57.7865 54.883 57.4991 53.7002 57.4997 52.5C57.4997 49.65 58.7497 50.375 56.7247 49.5C53.8345 48.1622 50.6845 47.4792 47.4997 47.5C42.5896 47.5133 37.8187 49.1324 33.9146 52.1103C30.0106 55.0882 27.1879 59.2614 25.8771 63.9934C24.5663 68.7253 24.8394 73.7561 26.6547 78.3183C28.47 82.8806 31.7279 86.7238 35.9313 89.2616C40.1348 91.7994 45.053 92.8925 49.9357 92.3742C54.8183 91.8559 59.3974 89.7546 62.9744 86.3909C66.5514 83.0271 68.9298 78.5856 69.7469 73.744C70.5639 68.9023 69.7747 63.9263 67.4997 59.575Z" fill="#B2E5FB"/>
  <path d="M67.4996 59.575C66.3681 59.9751 65.157 60.0977 63.9682 59.9327C62.7795 59.7676 61.6476 59.3197 60.6679 58.6265C59.6881 57.9333 58.889 57.0151 58.3377 55.9491C57.7864 54.883 57.499 53.7002 57.4996 52.5C57.4996 49.65 58.7496 50.375 56.7246 49.5C48.9746 45.325 36.1996 47.325 29.2246 56.8C32.4381 54.4645 36.2127 53.0214 40.1646 52.6174C44.1166 52.2134 48.105 52.863 51.7246 54.5C53.7246 55.375 52.4996 54.625 52.4996 57.5C52.499 58.7002 52.7864 59.883 53.3377 60.9491C53.889 62.0151 54.6881 62.9333 55.6679 63.6265C56.6476 64.3197 57.7795 64.7676 58.9682 64.9327C60.157 65.0977 61.3681 64.9751 62.4996 64.575C70.2996 80.3 57.4996 90.775 61.4746 87.5C63.2996 87.5 74.9996 74.575 67.4996 59.575Z" fill="#9FDBF3"/>
  <path d="M47.4997 7.50001C46.6001 7.49814 45.7167 7.73899 44.9426 8.19717C44.1684 8.65536 43.5322 9.31391 43.1011 10.1034C42.6699 10.8929 42.4597 11.7841 42.4926 12.6831C42.5256 13.5821 42.8004 14.4555 43.2882 15.2113C43.776 15.9671 44.4587 16.5774 45.2643 16.9777C46.0699 17.378 46.9686 17.5535 47.8656 17.4858C48.7626 17.4181 49.6247 17.1097 50.3611 16.593C51.0975 16.0763 51.6809 15.3705 52.0497 14.55C52.3916 13.7894 52.5378 12.9553 52.4751 12.1237C52.4123 11.2921 52.1425 10.4894 51.6903 9.78869C51.2381 9.08798 50.6178 8.51152 49.8858 8.11179C49.1539 7.71206 48.3336 7.50175 47.4997 7.50001Z" fill="#7C7D7D"/>
  <path d="M45.4497 7.95001C45.0391 8.87359 44.9181 9.89993 45.1025 10.8937C45.287 11.8875 45.7683 12.802 46.483 13.5167C47.1977 14.2314 48.1122 14.7127 49.106 14.8972C50.0998 15.0816 51.1261 14.9606 52.0497 14.55C52.4603 13.6264 52.5813 12.6001 52.3969 11.6063C52.2124 10.6126 51.7311 9.69803 51.0164 8.98333C50.3017 8.26863 49.3872 7.78731 48.3934 7.60284C47.3996 7.41837 46.3733 7.53941 45.4497 7.95001Z" fill="#919191"/>
  <path d="M80 15V10C80 9.33696 80.2634 8.70107 80.7322 8.23223C81.2011 7.76339 81.837 7.5 82.5 7.5C83.163 7.5 83.7989 7.76339 84.2678 8.23223C84.7366 8.70107 85 9.33696 85 10V15C85 15.663 84.7366 16.2989 84.2678 16.7678C83.7989 17.2366 83.163 17.5 82.5 17.5C81.837 17.5 81.2011 17.2366 80.7322 16.7678C80.2634 16.2989 80 15.663 80 15Z" fill="#6FABE6"/>
  <path d="M70 15V10C70 9.33696 70.2634 8.70107 70.7322 8.23223C71.2011 7.76339 71.837 7.5 72.5 7.5C73.163 7.5 73.7989 7.76339 74.2678 8.23223C74.7366 8.70107 75 9.33696 75 10V15C75 15.663 74.7366 16.2989 74.2678 16.7678C73.7989 17.2366 73.163 17.5 72.5 17.5C71.837 17.5 71.2011 17.2366 70.7322 16.7678C70.2634 16.2989 70 15.663 70 15Z" fill="#6FABE6"/>
  <path d="M116.025 108.975C116.72 109.674 117.193 110.563 117.384 111.53C117.575 112.497 117.476 113.5 117.1 114.411C116.723 115.322 116.085 116.101 115.267 116.651C114.448 117.2 113.486 117.496 112.5 117.5H67.5C64.8478 117.5 62.3043 116.446 60.4289 114.571C58.5536 112.696 57.5 110.152 57.5 107.5C57.5 104.848 58.5536 102.304 60.4289 100.429C62.3043 98.5536 64.8478 97.5 67.5 97.5C115.9 97.5 114.025 96.9 116.025 98.975C116.72 99.6742 117.193 100.563 117.384 101.53C117.575 102.497 117.476 103.5 117.1 104.411C116.723 105.322 116.085 106.101 115.267 106.651C114.448 107.2 113.486 107.496 112.5 107.5C113.824 107.506 115.092 108.036 116.025 108.975Z" fill="#6FABE6"/>
  <path d="M117.5 87.5C117.5 90.1522 116.446 92.6957 114.571 94.5711C112.696 96.4464 110.152 97.5 107.5 97.5H62.5C61.5142 97.4959 60.5515 97.2004 59.7331 96.6507C58.9147 96.101 58.2771 95.3217 57.9004 94.4106C57.5237 93.4996 57.4247 92.4975 57.6159 91.5303C57.8071 90.5632 58.28 89.6742 58.975 88.975C59.9084 88.036 61.1761 87.5056 62.5 87.5C61.1739 87.5 59.9021 86.9732 58.9645 86.0355C58.0268 85.0979 57.5 83.8261 57.5 82.5C57.5 81.1739 58.0268 79.9021 58.9645 78.9645C59.9021 78.0268 61.1739 77.5 62.5 77.5H107.5C110.152 77.5 112.696 78.5536 114.571 80.4289C116.446 82.3043 117.5 84.8478 117.5 87.5Z" fill="#9DCC6B"/>
  <path d="M22.5 107.5H12.5V117.5H22.5V107.5Z" fill="#C6C3D8"/>
  <path d="M116.15 92.5H80C76.0218 92.5 72.2064 90.9196 69.3934 88.1066C66.5804 85.2936 65 81.4782 65 77.5H107.025C108.819 77.4154 110.604 77.8157 112.19 78.6588C113.776 79.502 115.106 80.7569 116.04 82.2917C116.973 83.8264 117.476 85.5844 117.496 87.3807C117.515 89.177 117.05 90.9454 116.15 92.5Z" fill="#B5E08C"/>
  <path d="M117.5 112.5H79.675C75.783 112.5 72.0503 110.954 69.2982 108.202C66.5461 105.45 65 101.717 65 97.825C66.65 97.375 63.45 97.5 112.5 97.5C113.826 97.5 115.098 98.0268 116.036 98.9645C116.973 99.9021 117.5 101.174 117.5 102.5C117.5 103.826 116.973 105.098 116.036 106.036C115.098 106.973 113.826 107.5 112.5 107.5C113.826 107.5 115.098 108.027 116.036 108.964C116.973 109.902 117.5 111.174 117.5 112.5Z" fill="#82BCF4"/>
  <path d="M110 110H75C74.337 110 73.7011 109.737 73.2322 109.268C72.7634 108.799 72.5 108.163 72.5 107.5C72.5 106.837 72.7634 106.201 73.2322 105.732C73.7011 105.263 74.337 105 75 105H110C110.663 105 111.299 105.263 111.768 105.732C112.237 106.201 112.5 106.837 112.5 107.5C112.5 108.163 112.237 108.799 111.768 109.268C111.299 109.737 110.663 110 110 110Z" fill="#6FABE6"/>
  <path d="M100 90H65C64.337 90 63.7011 89.7366 63.2322 89.2678C62.7634 88.7989 62.5 88.163 62.5 87.5C62.5 86.837 62.7634 86.2011 63.2322 85.7322C63.7011 85.2634 64.337 85 65 85H100C100.663 85 101.299 85.2634 101.768 85.7322C102.237 86.2011 102.5 86.837 102.5 87.5C102.5 88.163 102.237 88.7989 101.768 89.2678C101.299 89.7366 100.663 90 100 90Z" fill="#9DCC6B"/>
</svg>